<?xml version="1.0" encoding="UTF-8"?>
<svg id="Layer_1" data-name="Layer 1" xmlns="http://www.w3.org/2000/svg" xmlns:xlink="http://www.w3.org/1999/xlink" viewBox="0 0 369.05 378.77">
  <defs>
    <style>
      .cls-1, .cls-2, .cls-3 {
        fill: none;
      }

      .cls-4 {
        fill: #ffcb05;
      }

      .cls-2, .cls-3 {
        stroke: #c9282d;
        stroke-miterlimit: 10;
      }

      .cls-5 {
        fill: #c9282d;
      }

      .cls-6 {
        clip-path: url(#clippath-11);
      }

      .cls-7 {
        clip-path: url(#clippath-10);
      }

      .cls-8 {
        clip-path: url(#clippath-12);
      }

      .cls-3 {
        stroke-width: 1.42px;
      }

      .cls-9 {
        clip-path: url(#clippath-1);
      }

      .cls-10 {
        clip-path: url(#clippath-3);
      }

      .cls-11 {
        clip-path: url(#clippath-4);
      }

      .cls-12 {
        clip-path: url(#clippath-2);
      }

      .cls-13 {
        clip-path: url(#clippath-7);
      }

      .cls-14 {
        clip-path: url(#clippath-6);
      }

      .cls-15 {
        clip-path: url(#clippath-9);
      }

      .cls-16 {
        clip-path: url(#clippath-8);
      }

      .cls-17 {
        clip-path: url(#clippath-5);
      }

      .cls-18 {
        clip-path: url(#clippath);
      }
    </style>
    <clipPath id="clippath">
      <rect class="cls-1" width="356.55" height="378.77"/>
    </clipPath>
    <clipPath id="clippath-1">
      <rect class="cls-1" width="356.55" height="378.77"/>
    </clipPath>
    <clipPath id="clippath-2">
      <rect class="cls-1" width="356.55" height="378.77"/>
    </clipPath>
    <clipPath id="clippath-3">
      <rect class="cls-1" width="356.55" height="378.77"/>
    </clipPath>
    <clipPath id="clippath-4">
      <rect class="cls-1" width="356.55" height="378.77"/>
    </clipPath>
    <clipPath id="clippath-5">
      <rect class="cls-1" width="356.55" height="378.77"/>
    </clipPath>
    <clipPath id="clippath-6">
      <rect class="cls-1" width="356.55" height="378.77"/>
    </clipPath>
    <clipPath id="clippath-7">
      <rect class="cls-1" width="356.55" height="378.77"/>
    </clipPath>
    <clipPath id="clippath-8">
      <rect class="cls-1" width="356.55" height="378.77"/>
    </clipPath>
    <clipPath id="clippath-9">
      <rect class="cls-1" width="356.55" height="378.77"/>
    </clipPath>
    <clipPath id="clippath-10">
      <rect class="cls-1" width="356.55" height="378.77"/>
    </clipPath>
    <clipPath id="clippath-11">
      <rect class="cls-1" width="356.55" height="378.77"/>
    </clipPath>
    <clipPath id="clippath-12">
      <rect class="cls-1" width="356.55" height="378.77"/>
    </clipPath>
  </defs>
  <g class="cls-18">
    <path class="cls-5" d="M223.68,333.22c0,25.16-20.39,45.55-45.55,45.55s-45.55-20.39-45.55-45.55,20.39-45.55,45.55-45.55,45.55,20.39,45.55,45.55"/>
  </g>
  <rect class="cls-5" x="69.17" y="148.42" width="214.9" height="90.91" transform="translate(-57.18 75.05) rotate(-20.73)"/>
  <g class="cls-9">
    <path class="cls-5" d="M226.16,80.63c.24,1.4,3.96,4.26,4.19,5.55,1.48,8.15-1.02,9.41-7.2,15.89-19.18,20.11-66.4,27.38-92.94-3.45-4.03-4.69-5.79-6.61-4.93-12.73l5.39-5.09-.58-50.12,2.48-.06.29-.02-.15-19.49,23.55-.22L156.78,0l42.15.28.16,10.82h23.76l.26,19.58h2.35"/>
    <path class="cls-4" d="M110.42,249.87c-11.11,4.77-12.81,4.58-10.89,6.77.99,1.13,1.64,2.3,2.77,3.41,3.25,3.2,4.97,4.54,9.22,2.9l164.56-61.41c4.03-1.5,5.71-6.27,3.56-9.99-.37-.65-.78-1.27-1.18-1.88-1.67-1.95-2.88-1.58-6.62-.57-.21.06-.43.13-.64.21l-160.76,60.56Z"/>
    <path class="cls-5" d="M92.07,154.5c-.5-.14-.97-.37-1.4-.71.95-.22,1.36.08,1.4.71"/>
    <path class="cls-5" d="M103.27,135.21s0,0,0,0c0,0,0,0,0,0"/>
    <path class="cls-5" d="M8.43,225.12c-7.86-9.8-2.95-18.11-5.99-26.05-6.7-17.48,2.63-11.26,1.99-18.24-.52-5.67-6.1-20.7,2.5-19.96-.98-3.21,0-9.7,5.37-10.81-2.62-9.11-.55-21.39,9.52-16.44-2.12-2.86-4.69-34.12,2.3-33.24-.55-1.19-.68-2.61-.79-4.03-.17-2.29,1.86-4.12,4.11-3.71-.52-4.31-1.67-10.25,2.41-12.52,2.9-1.61,10.53-1.88,12-2.59,1.67-.8,1.24-3.36,2.89-5.01,6.43-6.39,10.56-.01,11.08,10.96.12-5.29-1.03-13.82,8.05-11.26-2.46-6.69-6.85-20.33,5.89-17.82-.63-10.59,5.1-9.69,10.67-6.75,2.75-10.02,14.3-4.98,12.37,4.12,0,0-.53,2.47-.55,2.42,4.45-8.83,6.24-18.79,16.65-10.46.75-8.86,9.88-6.17,11.36-4.59.72.76,3.57,3.15,4.62,3.58,13.03,5.3,36.82-3.52,52.19-4.47.35,14.4-1.98,29.38-2.42,44.27-11.07.8-21.96,3.53-32.11,8.05-7.43,3.31-30.55,17.72-29.58,23.25.81,4.58,4.53,15.07-9.69,21.4-.03-.01-.35-.06-.2,0,9.75,3.85-3.97,21.23-11.01,19.29-.04-.64-.45-.94-1.4-.71.42.35.89.58,1.4.71.19,3.16-8.91,14.81-9.29,15.11-1.9,1.54,2.36,8.86,1.76,11.25-1.36,5.43-9.58,5.37-6.53,6.63,6.94,2.86-6.84,13.38,7.42,18.73-6.09,7.65,7.43,1.92,6.48,17.39,4.54,1.04,4.07,5.41,1.24,9.08,9.83-1.96,5.9,14.41,4.82,15.35,2.31-.43,4.39.08,6.4,1.2,1.93,1.08,3.62,7.59,5.18,8.56,2.7,1.66,4.11-2.73,7.94.41,4.97,4.08,1.15,16.6,1.71,18.35,1.26,3.92,5.01,3.85,4.55,11.3,2.91-4.24,8.62-2.72,11.18,1.77,4.93,3.04,15.21,8.96,16.98,9.81,8.16,3.91,18.5,3.81,27.54,3.77.38,5.31.89,10.61.89,16.16-1,3,4,6,3,8-3.83,7.66-4.45,17.85-4.06,28.57-16.94-.03-34.13-2.23-50.41-6.98-7.61-2.22-11.24-2.48-18.2-2.64-2.19-.05-4.4,2.53-6.87,1.6-.66-.25-4.06-3.45-3.6-3.48-4.5.32-4.36.39-6.04-3.33-10.74,2.23-14.5-1.41-11.94-12.41-8.13.78-14.17-4.51-13.4-12.89-9.18,1.23-19.95-5.23-16.85-14.98-9.18,2.85-29.23-6.37-21.4-17.28-4.27-2.07-6.27-8.08-4.68-10.84,7.68-13.31-5.59-6.35-1.45-16.24-14.64,4.56-35.46-32.75-16.01-31.36"/>
    <path class="cls-4" d="M256.33,127.46c-.2-1.43-.51-2.68-.67-4.05-.44-3.72-1.51-2.48-10.71.91-52.65,19.39-110.28,41.68-161.93,61.08-6.96,1.25-9.88,11.52-6.59,15.82l169.88-64.98c.29-.11.78-.29,1.08-.39,1.47-.49,7.53-2.83,8.87-3.75,1.07-.73.31-2.94.08-4.63"/>
    <path class="cls-4" d="M126.11,90.96c3.62-1.57,6.99,4.45-.86,4.61-1.22.03-1.99,1.9-.81,3.05,1.77,1.72-3.48,5.36-6.36-.33-1.01-2-4.13-.21-2.12,3.11,3.17,5.22-8.36,6.27-6.4-1,.35-1.32-1.24-4.92-2.58,1.75-.3,1.48-5.15,3.57-5.69-.23-.31-2.22-.93-4.5-2.89-5.47-2.56-1.27-1.36.86,2.2-4.37,1.53-2.24,4.74-10.23,8.3-7.24,1.22,1.02-1.19,8.14,3.03,3.6,1.68-1.81,3.58-6.04,7.88-5.07,3,.68-5.95,12.61,1.85,4.11,2.7-2.94,6.98-2.49,3.57,1.89-.55.71-.94,2.39.87,1.61"/>
    <path class="cls-3" d="M126.11,90.96c3.62-1.57,6.99,4.45-.86,4.61-1.22.03-1.99,1.9-.81,3.05,1.77,1.72-3.48,5.36-6.36-.33-1.01-2-4.13-.21-2.12,3.11,3.17,5.22-8.36,6.27-6.4-1,.35-1.32-1.24-4.92-2.58,1.75-.3,1.48-5.15,3.57-5.69-.23-.31-2.22-.93-4.5-2.89-5.47-2.56-1.27-1.36.86,2.2-4.37,1.53-2.24,4.74-10.23,8.3-7.24,1.22,1.02-1.19,8.14,3.03,3.6,1.68-1.81,3.58-6.04,7.88-5.07,3,.68-5.95,12.61,1.85,4.11,2.7-2.94,6.98-2.49,3.57,1.89-.55.71-.94,2.39.87,1.61Z"/>
    <path class="cls-5" d="M123.52,93.84c-1.02.05-1.82.15-2.57.24-.28.03-.56.07-.84.1.07.42.73,1.03.56,2.18-.14-.48-.34-.88-.62-1.22-.26-.33-.59-.61-1.01-.86-.72.05-1.53.06-2.54,0-1.5-.08-2.95-.15-4.37-.16.63.78,1.42,3.98.49,6.63-.02-.29-.03-.6-.03-.94-.05-1.93-.14-4.93-1.52-5.69-.67,0-1.35.04-2.02.08-1.81.13-3.64.41-5.57.93.54.55,1.92,1.87,1.22,4.08v-.14c-.36-2.06-.53-2.24-1.95-3.67l-.05-.05c-1.36.41-3,.73-4.62.9-.09-.07-.19-.14-.29-.21-.19-.12-.3-.26-.35-.42,1.75-.06,3.58-.34,5.22-.84.12-.21.3-.43.52-.71.75-.95,2.02-2.57,2.76-5.72.55,1.61-1.68,5.25-2.41,6.18,1.97-.53,3.82-.81,5.66-.94.67-.05,1.34-.07,2.01-.09,1.76-1.24,2.46-2.24,3.57-3.85.29-.42.62-.89,1.01-1.43-.83,2.22-2.74,4.55-3.67,5.27,1.51,0,3.03.08,4.62.17.65.04,1.21.04,1.72.03.41-.12,2.66-2.8,2.8-2.97h.01c-.74,1.43-1.29,2.2-1.99,2.93,1.06-.07,3.14-.21,4.25.17"/>
    <path class="cls-4" d="M41.46,216.94c-3.45-2.83.87-9.33,5.09-1.52.66,1.22,2.94,1.02,3.49-.75.82-2.67,7.19.74,2.95,6.58-1.49,2.05,1.92,4.27,4.22.53,3.61-5.89,10.63,5.17,2.29,6.96-1.51.32-4.31,3.79,3.09,1.69,1.64-.46,6.25,3.35,2.7,5.84-2.08,1.46-4.05,3.27-4.02,5.74.04,3.24,1.57.92-5.54.04-3.05-.38-12.75.52-11.58-4.62.4-1.76,8.81-3,2.06-4.91-2.69-.76-7.94-.49-9.17-5.31-.86-3.38,15.77-.52,3.18-3.99-4.35-1.2-6.11-5.74.06-4.57,1,.19,2.89-.29,1.17-1.71"/>
    <path class="cls-3" d="M41.46,216.94c-3.45-2.83.87-9.33,5.09-1.52.66,1.22,2.94,1.02,3.49-.75.82-2.67,7.19.74,2.95,6.58-1.49,2.05,1.92,4.27,4.22.53,3.61-5.89,10.63,5.17,2.29,6.96-1.51.32-4.31,3.79,3.09,1.69,1.64-.46,6.25,3.35,2.7,5.84-2.08,1.46-4.05,3.27-4.02,5.74.04,3.24,1.57.92-5.54.04-3.05-.38-12.75.52-11.58-4.62.4-1.76,8.81-3,2.06-4.91-2.69-.76-7.94-.49-9.17-5.31-.86-3.38,15.77-.52,3.18-3.99-4.35-1.2-6.11-5.74.06-4.57,1,.19,2.89-.29,1.17-1.71Z"/>
    <path class="cls-5" d="M45.7,218.06c.58,1,1.09,1.76,1.57,2.47.18.26.35.53.53.79.39-.29.66-1.27,1.9-1.69-.41.39-.71.8-.91,1.25-.19.43-.3.91-.35,1.46.42.7.85,1.51,1.31,2.56.69,1.56,1.37,3.05,2.09,4.48.46-1.04,3.28-3.48,6.43-3.92-.28.17-.59.34-.93.52-1.92,1.05-4.9,2.68-4.94,4.47.36.67.73,1.34,1.13,1.99,1.06,1.75,2.29,3.45,3.82,5.13.27-.83.89-2.9,3.48-3.34l-.14.08c-1.89,1.42-1.98,1.69-2.69,3.86l-.02.07c1.12,1.16,2.28,2.65,3.29,4.19-.03.13-.05.26-.06.41-.02.25-.11.43-.24.57-.96-1.73-2.19-3.43-3.54-4.83-.27-.02-.59-.08-.98-.16-1.35-.26-3.63-.71-7.18.18,1.34-1.39,6.16-1.01,7.47-.76-1.55-1.71-2.79-3.43-3.87-5.21-.39-.65-.77-1.31-1.12-1.98-2.16-1.13-3.53-1.32-5.72-1.61-.58-.08-1.21-.16-1.96-.28,2.67-.31,6,.41,7.21.98-.77-1.52-1.49-3.09-2.22-4.74-.3-.67-.58-1.24-.86-1.75-.33-.35-4.19-1.23-4.44-1.29h-.02c1.84,0,2.9.16,4,.47-.62-1.03-1.83-3.05-2.02-4.37"/>
    <path class="cls-4" d="M121.86,48.07c4.01-6.65,16.29-.85,3.89,8.38-1.93,1.44-1.01,5.33,2.18,5.82,4.8.74.53,12.57-10.58,6.74-3.9-2.05-6.88,4.38.15,7.4,11.04,4.75-6.24,19.61-11.42,5.7-.94-2.52-7.6-6.47-2.14,5.75,1.21,2.71-4.2,11.61-9.38,6.12-3.04-3.21-6.64-6.16-10.89-5.48-5.56.89-1.19,2.93-1.47-9.52-.12-5.34-4.09-21.82,5.04-21.1,3.13.25,7.38,14.41,8.98,2.31.64-4.82-1.15-13.79,6.85-17.13,5.6-2.34,4.86,27.01,7.67,4.48.97-7.8,8.35-11.95,7.89-1.04-.08,1.77,1.22,4.91,3.23,1.58"/>
    <path class="cls-3" d="M121.86,48.07c4.01-6.65,16.29-.85,3.89,8.38-1.93,1.44-1.01,5.33,2.18,5.82,4.8.74.53,12.57-10.58,6.74-3.9-2.05-6.88,4.38.15,7.4,11.04,4.75-6.24,19.61-11.42,5.7-.94-2.52-7.6-6.47-2.14,5.75,1.21,2.71-4.2,11.61-9.38,6.12-3.04-3.21-6.64-6.16-10.89-5.48-5.56.89-1.19,2.93-1.47-9.52-.12-5.34-4.09-21.82,5.04-21.1,3.13.25,7.38,14.41,8.98,2.31.64-4.82-1.15-13.79,6.85-17.13,5.6-2.34,4.86,27.01,7.67,4.48.97-7.8,8.35-11.95,7.89-1.04-.08,1.77,1.22,4.91,3.23,1.58Z"/>
    <path class="cls-5" d="M121,55.65c-1.58,1.25-2.75,2.32-3.86,3.33-.41.38-.82.74-1.23,1.11.6.6,2.35.82,3.39,2.85-.77-.61-1.55-1.02-2.38-1.25-.79-.23-1.65-.3-2.6-.24-1.11.9-2.39,1.84-4.08,2.9-2.51,1.58-4.9,3.12-7.19,4.72,1.91.54,6.82,4.77,8.37,10.08-.36-.44-.73-.93-1.13-1.47-2.29-3.04-5.85-7.76-8.94-7.38-1.07.79-2.12,1.6-3.14,2.44-2.75,2.27-5.36,4.81-7.88,7.86,1.51.26,5.21.81,6.62,5.15l-.16-.22c-2.92-2.89-3.4-2.98-7.32-3.66l-.13-.02c-1.72,2.21-3.99,4.6-6.39,6.72-.23-.01-.47-.01-.71,0-.44.02-.78-.08-1.04-.27,2.73-2.09,5.35-4.64,7.42-7.3-.04-.47-.01-1.04.02-1.73.11-2.39.31-6.43-2.11-12.32,2.72,1.96,3.29,10.34,3.19,12.67,2.55-3.09,5.21-5.67,8.01-7.98,1.02-.84,2.06-1.65,3.12-2.43,1.41-4.01,1.38-6.4,1.33-10.26-.01-1.01-.03-2.13-.01-3.45,1.2,4.52.8,10.43.13,12.65,2.42-1.72,4.95-3.34,7.6-5.01,1.08-.68,1.99-1.31,2.8-1.91.53-.65,1.07-7.52,1.1-7.97v-.04c.46,3.16.45,5.03.18,7,1.61-1.32,4.8-3.93,7.01-4.58"/>
    <path class="cls-4" d="M81.85,50.87c.27-6.33,11.39-8.99,6.1,3.34-.82,1.92,1.37,3.93,3.86,2.59,3.75-2.02,5.33,7.75-4.96,9.79-3.61.72-3.23,6.37,3.02,4.65,9.82-2.7,3.23,15.76-5.97,9.57-1.67-1.12-8.02-.19.72,4.78,1.94,1.1,1.55,9.59-4.34,8.78-3.45-.48-7.21-.49-10,2.15-3.65,3.45.29,2.49-4.81-5.32-2.19-3.35-11.54-11.81-4.68-16.09,2.35-1.46,10.99,5.37,7.37-3.19-1.44-3.41-6.26-8.21-1.82-14.49,3.11-4.4,14.14,14.73,7.29-1.12-2.37-5.49,1.3-11.97,5.27-4.76.64,1.17,2.81,2.5,2.95-.67"/>
    <path class="cls-3" d="M81.85,50.87c.27-6.33,11.39-8.99,6.1,3.34-.82,1.92,1.37,3.93,3.86,2.59,3.75-2.02,5.33,7.75-4.96,9.79-3.61.72-3.23,6.37,3.02,4.65,9.82-2.7,3.23,15.76-5.97,9.57-1.67-1.12-8.02-.19.72,4.78,1.94,1.1,1.55,9.59-4.34,8.78-3.45-.48-7.21-.49-10,2.15-3.65,3.45.29,2.49-4.81-5.32-2.19-3.35-11.54-11.81-4.68-16.09,2.35-1.46,10.99,5.37,7.37-3.19-1.44-3.41-6.26-8.21-1.82-14.49,3.11-4.4,14.14,14.73,7.29-1.12-2.37-5.49,1.3-11.97,5.27-4.76.64,1.17,2.81,2.5,2.95-.67Z"/>
    <path class="cls-5" d="M84.21,56.16c-.64,1.62-1.07,2.91-1.47,4.13-.15.45-.29.9-.45,1.35.67.07,2.02-.69,3.56.06-.8.01-1.51.15-2.21.43-.66.27-1.3.67-1.97,1.2-.44,1.15-.99,2.41-1.79,3.97-1.18,2.31-2.3,4.53-3.32,6.75,1.58-.65,6.79-.49,9.99,2.1-.43-.1-.89-.22-1.4-.35-2.85-.75-7.27-1.92-9.34-.08-.46,1.06-.9,2.12-1.3,3.19-1.09,2.88-1.97,5.86-2.57,9.11,1.19-.61,4.07-2.19,6.79-.14l-.21-.06c-3.24-.33-3.62-.13-6.71,1.46l-.1.05c-.74,4.67-2.82,10.93-5.16,14.74l-.54-1.66c2.26-3.67,4.14-8.75,4.86-13.25-.21-.28-.42-.66-.66-1.12-.86-1.59-2.31-4.27-6.37-6.77,2.73-.16,6.44,4.9,7.28,6.44.62-3.3,1.52-6.32,2.62-9.25.4-1.07.84-2.13,1.29-3.17-.57-3.29-1.53-4.81-3.08-7.24-.41-.64-.86-1.35-1.37-2.19,2.64,2.26,4.68,6.24,5.07,8.01,1.07-2.35,2.25-4.7,3.5-7.14.51-1,.92-1.87,1.26-2.67.12-.69-2.19-5.36-2.34-5.66v-.02c1.56,1.78,2.29,2.98,2.87,4.38.64-1.68,1.91-5,3.25-6.57"/>
    <path class="cls-4" d="M99.81,108.9c3.4-7.41,16.51-5.15,4.82,6.97-1.82,1.88-.49,5.35,2.82,4.97,4.97-.57,1.83,11.85-10.09,9.25-4.19-.92-6.56,6.01.91,7.02,11.74,1.59-4.34,20.37-11.05,8.48-1.22-2.15-8.41-4.15-1.59,6.05,1.52,2.26-3.08,12.19-8.93,8.34-3.42-2.26-7.4-4.11-11.66-2.33-5.58,2.33-.91,3.12-2.48-8.7-.67-5.07-6.41-19.73,2.97-21.48,3.21-.6,9,11.78,9.39-.19.15-4.77-2.59-12.85,5.22-18.17,5.46-3.72,7.73,24.49,8.28,2.23.19-7.7,7.28-13.63,7.93-3.09.1,1.71,1.75,4.36,3.46.64"/>
    <path class="cls-3" d="M99.81,108.9c3.4-7.41,16.51-5.15,4.82,6.97-1.82,1.88-.49,5.35,2.82,4.97,4.97-.57,1.83,11.85-10.09,9.25-4.19-.92-6.56,6.01.91,7.02,11.74,1.59-4.34,20.37-11.05,8.48-1.22-2.15-8.41-4.15-1.59,6.05,1.52,2.26-3.08,12.19-8.93,8.34-3.42-2.26-7.4-4.11-11.66-2.33-5.58,2.33-.91,3.12-2.48-8.7-.67-5.07-6.41-19.73,2.97-21.48,3.21-.6,9,11.78,9.39-.19.15-4.77-2.59-12.85,5.22-18.17,5.46-3.72,7.73,24.49,8.28,2.23.19-7.7,7.28-13.63,7.93-3.09.1,1.71,1.75,4.36,3.46.64Z"/>
    <path class="cls-5" d="M99.7,116.37c-1.48,1.61-2.56,2.94-3.59,4.2-.38.47-.76.93-1.14,1.39.67.41,2.48.16,3.75,1.82-.85-.38-1.68-.56-2.56-.56-.83,0-1.71.16-2.68.46-1.04,1.15-2.24,2.39-3.86,3.86-2.39,2.18-4.68,4.28-6.85,6.42,2,0,7.44,2.74,9.56,7.39-.41-.33-.84-.7-1.31-1.11-2.65-2.29-6.76-5.85-9.86-4.66-1.01,1.04-1.99,2.09-2.95,3.17-2.57,2.9-4.97,6.02-7.22,9.6,1.56-.15,5.4-.62,7.28,3.15l-.19-.17c-3.28-1.98-3.78-1.94-7.83-1.54h-.14c-1.53,2.59-3.59,5.46-5.82,8.13-.23.04-.48.11-.73.19-.45.14-.8.13-1.09.02,2.57-2.72,4.98-5.86,6.81-8.95-.09-.44-.12-.99-.15-1.66-.13-2.31-.34-6.22-3.41-11.19,2.98,1.15,4.42,8.99,4.55,11.24,2.28-3.63,4.73-6.8,7.34-9.74.96-1.08,1.93-2.13,2.93-3.15,1.02-4.2.75-6.48.31-10.14-.11-.96-.24-2.02-.37-3.28,1.68,3.99,1.89,9.74,1.43,12.04,2.29-2.28,4.7-4.5,7.23-6.8,1.03-.94,1.9-1.78,2.65-2.57.47-.76.31-7.46.3-7.9v-.04c.79,2.9.97,4.68.9,6.63,1.51-1.69,4.49-5.02,6.68-6.24"/>
    <path class="cls-4" d="M49.22,73.61c5.17,1.48-.24,6.39,2.07,10.4,1.36,2.35,4.11.75-1.36,7.97-3.03,4.01,2.84,2.46,4.71,5.98.78,1.47-1.53,5.62-3.19,6.73-2.98,1.99-5.22.42-7.08,2.27-2.23,2.22,3.36,1.79,3.94,2.26,1.53,1.23.73,4.26-.97,4.8-3.85-1.72-3.27.19-.4,1.77,1.08.55.16,4.65-3.66,1.37-2.13-2.34-7.66-.62.65,3.5.21,6.06-9,3.48-10.01,4.61-1.84,2.06,4.54.35-.62,5.07-1.31,1.2-3.74,2.52-5.29,3.2-2.83,1.26-8.62-13.84-2.4-13.22,2.35.23-1.51-8.21-1.88-10.52-1.85-11.23,4.34-4.9,4.39-4.91.58-2.76-2.2-4.91-.79-7.42,2.96-3.29,3.63,6.12,5.07,3.61.77-1.8-1.93-8.36-2.21-13.26-.21-3.59.77-6.28,3.49-4.12,2.66,2.12,7.35,6.02,5.72-1.9-.31-1.51.82-3.22,2.91-1.09,3.25,3.32,3.27-4.31,5.47-6.85.37-.43.69-.47,1.43-.26"/>
    <path class="cls-3" d="M49.22,73.61c5.17,1.48-.24,6.39,2.07,10.4,1.36,2.35,4.11.75-1.36,7.97-3.03,4.01,2.84,2.46,4.71,5.98.78,1.47-1.53,5.62-3.19,6.73-2.98,1.99-5.22.42-7.08,2.27-2.23,2.22,3.36,1.79,3.94,2.26,1.53,1.23.73,4.26-.97,4.8-3.85-1.72-3.27.19-.4,1.77,1.08.55.16,4.65-3.66,1.37-2.13-2.34-7.66-.62.65,3.5.21,6.06-9,3.48-10.01,4.61-1.84,2.06,4.54.35-.62,5.07-1.31,1.2-3.74,2.52-5.29,3.2-2.83,1.26-8.62-13.84-2.4-13.22,2.35.23-1.51-8.21-1.88-10.52-1.85-11.23,4.34-4.9,4.39-4.91.58-2.76-2.2-4.91-.79-7.42,2.96-3.29,3.63,6.12,5.07,3.61.77-1.8-1.93-8.36-2.21-13.26-.21-3.59.77-6.28,3.49-4.12,2.66,2.12,7.35,6.02,5.72-1.9-.31-1.51.82-3.22,2.91-1.09,3.25,3.32,3.27-4.31,5.47-6.85.37-.43.69-.47,1.43-.26Z"/>
    <path class="cls-5" d="M47.81,81.79c-1.07,3.1-2.32,6.25-3.67,9.44,1.49-1.43,2.88-2.03,4.12-3.05,0,0-2.34,2.56-3.77,3.92-.29.27-.75.68-1.11.99-1.29,2.98-2.66,5.89-4.03,8.92-.46,1-.91,2.01-1.37,3.01.54-.19,1.22-.41,1.97-.65,1.56-.5,8.49-4.22,9.1-4.79-.84,1.66-5.91,4.77-8.96,5.76-1.15.37-2.14.69-2.66.9-2.25,4.99-4.43,10.03-6.26,15.04,1.2-.53,4.74-1.27,7.33-.37-.62.12-1.31.18-2.03.25-1.78.16-3.84.35-5.76,1.4-2.25,6.37-3.61,9.89-4.02,16.06l-1.44-.21c.43-6.5,2.25-10.39,4.65-17.06-.04-1.42.26-1.18-.7-2.72-.97-1.56-1.14-3.45-1.57-5.17-.15-.6-.67-3.64-.9-3.79.58.38.9,1.66,1.29,3.24.41,1.64.9,3.64,1.79,5.06.4.64.9.92,1.14,1.7,2.08-5.58,4.4-10.71,6.9-16.24h-.02c.22-.99-.33-2.42-.94-4.01-.77-1.99-1.42-5.57-1.14-7.87.23,1.64.94,5.07,1.83,7.37.41,1.06.79,2.05.97,2.97l.16-.34c1.33-2.94,3.35-5.73,3.17-9.02-.12-2.22-.11-6.08-.11-6.08.56,2.46.8,4.68.89,6.26.82-1.89,3.39-7.84,5.16-10.92"/>
    <path class="cls-4" d="M75.18,95.54c2.6-4.87,11.53-1.22,3.08,5.81-1.31,1.09-.52,3.82,1.76,4.05,3.43.35.85,8.9-7.26,5.18-2.85-1.31-4.72,3.37.39,5.25,8.02,2.95-3.69,14.16-7.89,4.48-.76-1.75-5.64-4.31-1.3,4.16.96,1.88-2.54,8.4-6.43,4.7-2.28-2.16-4.95-4.12-7.94-3.48-3.92.84-.74,2.12-1.4-6.71-.28-3.79-3.73-15.34,2.78-15.17,2.23.06,5.78,9.95,6.46,1.3.27-3.45-1.34-9.75,4.22-12.42,3.88-1.87,4.47,19,5.62,2.89.4-5.57,5.48-8.8,5.56-1.03.01,1.26,1.05,3.44,2.36,1"/>
    <path class="cls-3" d="M75.18,95.54c2.6-4.87,11.53-1.22,3.08,5.81-1.31,1.09-.52,3.82,1.76,4.05,3.43.35.85,8.9-7.26,5.18-2.85-1.31-4.72,3.37.39,5.25,8.02,2.95-3.69,14.16-7.89,4.48-.76-1.75-5.64-4.31-1.3,4.16.96,1.88-2.54,8.4-6.43,4.7-2.28-2.16-4.95-4.12-7.94-3.48-3.92.84-.74,2.12-1.4-6.71-.28-3.79-3.73-15.34,2.78-15.17,2.23.06,5.78,9.95,6.46,1.3.27-3.45-1.34-9.75,4.22-12.42,3.88-1.87,4.47,19,5.62,2.89.4-5.57,5.48-8.8,5.56-1.03.01,1.26,1.05,3.44,2.36,1Z"/>
    <path class="cls-5" d="M74.85,100.95c-1.07.95-1.86,1.75-2.61,2.51-.28.28-.55.56-.83.84.45.4,1.7.5,2.51,1.89-.57-.4-1.14-.67-1.74-.8-.57-.13-1.18-.15-1.85-.07-.75.68-1.63,1.39-2.79,2.21-1.72,1.22-3.36,2.4-4.93,3.62,1.38.31,5.02,3.13,6.32,6.84-.27-.3-.55-.63-.86-1-1.74-2.07-4.45-5.29-6.62-4.9-.73.6-1.44,1.21-2.14,1.85-1.87,1.71-3.63,3.62-5.29,5.88,1.08.13,3.73.38,4.89,3.41l-.13-.15c-2.18-1.94-2.53-1.99-5.33-2.32h-.09c-1.14,1.63-2.66,3.4-4.28,5-.16,0-.33,0-.51.03-.31.03-.55-.03-.75-.15,1.86-1.59,3.63-3.5,4.99-5.47-.04-.33-.05-.74-.05-1.23,0-1.7-.02-4.58-1.96-8.67,2.01,1.29,2.73,7.22,2.74,8.88,1.69-2.29,3.48-4.22,5.38-5.96.69-.64,1.4-1.25,2.13-1.85.85-2.9.74-4.6.56-7.33-.05-.72-.1-1.51-.14-2.45,1.02,3.16.96,7.37.57,8.98,1.65-1.31,3.39-2.55,5.2-3.84.74-.52,1.37-1.01,1.91-1.46.35-.48.47-5.38.48-5.7v-.02c.44,2.23.51,3.55.39,4.96,1.1-1,3.26-2.97,4.81-3.52"/>
    <path class="cls-4" d="M45.08,131.93c-2.63-4.85,5.35-10.29,6.54.64.18,1.7,2.9,2.54,4.35.76,2.18-2.67,7.89,4.2.32,8.91-2.66,1.65.2,5.79,4.59,2.57,6.89-5.06,9.77,10.89-.62,9.05-1.88-.33-6.71,2.33,2.75,3.38,2.1.23,5.6,6.75.37,7.96-3.06.7-6.17,1.85-7.28,4.7-1.46,3.73,1.37,1.79-6.37-2.53-3.32-1.85-14.85-5.36-11.12-10.69,1.28-1.83,11.49.67,4.65-4.67-2.73-2.13-8.87-4.26-8.03-10.37.58-4.27,18.31,6.76,5.51-3.09-4.43-3.41-4.32-9.43,2.21-5.21,1.06.68,3.45,1.02,2.13-1.41"/>
    <path class="cls-3" d="M45.08,131.93c-2.63-4.85,5.35-10.29,6.54.64.18,1.7,2.9,2.54,4.35.76,2.18-2.67,7.89,4.2.32,8.91-2.66,1.65.2,5.79,4.59,2.57,6.89-5.06,9.77,10.89-.62,9.05-1.88-.33-6.71,2.33,2.75,3.38,2.1.23,5.6,6.75.37,7.96-3.06.7-6.17,1.85-7.28,4.7-1.46,3.73,1.37,1.79-6.37-2.53-3.32-1.85-14.85-5.36-11.12-10.69,1.28-1.83,11.49.67,4.65-4.67-2.73-2.13-8.87-4.26-8.03-10.37.58-4.27,18.31,6.76,5.51-3.09-4.43-3.41-4.32-9.43,2.21-5.21,1.06.68,3.45,1.02,2.13-1.41Z"/>
    <path class="cls-5" d="M49.41,135.19c.2,1.42.43,2.52.65,3.56.08.39.16.77.24,1.15.58-.15,1.35-1.14,2.97-1.05-.65.25-1.18.58-1.63,1.01-.42.41-.77.9-1.08,1.51.15,1,.26,2.12.31,3.55.07,2.11.14,4.13.3,6.11,1.02-.98,5.38-2.46,9.19-1.5-.4.06-.83.11-1.31.16-2.69.31-6.87.79-7.74,2.82.1.94.22,1.87.36,2.81.4,2.51,1.01,5.02,1.98,7.66.7-.83,2.38-2.9,5.54-2.2l-.19.02c-2.83.75-3.05,1.01-4.88,3.17l-.06.07c.74,1.85,1.38,4.1,1.81,6.34-.09.13-.17.28-.26.44-.15.28-.33.45-.54.54-.29-2.43-.91-4.96-1.8-7.18-.3-.15-.64-.37-1.05-.64-1.42-.93-3.83-2.51-8.31-3.15,2.18-.96,7.53,1.71,8.91,2.61-.98-2.68-1.6-5.23-2-7.78-.15-.93-.27-1.86-.37-2.79-1.95-2.31-3.43-3.15-5.8-4.51-.62-.36-1.31-.75-2.12-1.23,3.2.89,6.68,3.27,7.8,4.48-.18-2.1-.26-4.23-.33-6.46-.03-.91-.08-1.69-.16-2.4-.21-.56-4.22-3.36-4.49-3.55h-.02c2.1.85,3.24,1.52,4.35,2.4-.23-1.47-.68-4.36-.28-5.95"/>
    <path class="cls-4" d="M60.59,168.63c.16-5.41,10.54-7.25,5.77,3.1-.74,1.61,1.34,3.42,3.65,2.37,3.48-1.58,5.11,6.85-4.51,8.19-3.38.47-2.93,5.32,2.9,4.1,9.16-1.92,3.26,13.62-5.46,7.95-1.58-1.03-7.52-.48.75,4.12,1.84,1.02,1.59,8.27-3.94,7.34-3.24-.54-6.76-.7-9.34,1.45-3.37,2.81.31,2.14-4.58-4.74-2.1-2.96-10.98-10.57-4.62-13.96,2.18-1.16,10.37,5.03,6.86-2.44-1.4-2.98-5.98-7.27-1.91-12.48,2.85-3.64,13.46,13.17,6.82-.67-2.3-4.79,1.05-10.19,4.87-3.86.62,1.02,2.67,2.25,2.75-.46"/>
    <path class="cls-3" d="M60.59,168.63c.16-5.41,10.54-7.25,5.77,3.1-.74,1.61,1.34,3.42,3.65,2.37,3.48-1.58,5.11,6.85-4.51,8.19-3.38.47-2.93,5.32,2.9,4.1,9.16-1.92,3.26,13.62-5.46,7.95-1.58-1.03-7.52-.48.75,4.12,1.84,1.02,1.59,8.27-3.94,7.34-3.24-.54-6.76-.7-9.34,1.45-3.37,2.81.31,2.14-4.58-4.74-2.1-2.96-10.98-10.57-4.62-13.96,2.18-1.16,10.37,5.03,6.86-2.44-1.4-2.98-5.98-7.27-1.91-12.48,2.85-3.64,13.46,13.17,6.82-.67-2.3-4.79,1.05-10.19,4.87-3.86.62,1.02,2.67,2.25,2.75-.46Z"/>
    <path class="cls-5" d="M62.88,173.25c-.58,1.36-.96,2.45-1.31,3.47-.13.38-.26.76-.4,1.14.63.09,1.88-.51,3.34.19-.75-.02-1.42.07-2.06.29-.61.2-1.21.52-1.83.95-.4.97-.9,2.03-1.62,3.33-1.08,1.93-2.09,3.79-3.01,5.65,1.48-.49,6.36-.15,9.39,2.19-.41-.1-.84-.22-1.31-.36-2.68-.76-6.84-1.93-8.75-.43-.42.89-.81,1.78-1.17,2.68-.98,2.42-1.76,4.94-2.28,7.7,1.1-.48,3.78-1.71,6.36.14l-.19-.06c-3.04-.41-3.4-.26-6.27.98l-.1.04c-.31,1.96-.92,4.24-1.72,6.43-.16.09-.31.19-.48.3-.29.2-.55.28-.79.28,1.03-2.31,1.82-4.84,2.19-7.19-.2-.25-.4-.58-.64-.98-.83-1.39-2.22-3.74-6.06-6.05,2.56-.03,6.11,4.45,6.92,5.8.53-2.8,1.33-5.35,2.32-7.81.36-.9.75-1.79,1.16-2.67-.58-2.84-1.5-4.18-2.99-6.32-.39-.56-.82-1.19-1.31-1.93,2.51,2.04,4.48,5.53,4.87,7.06.97-1.97,2.04-3.93,3.18-5.98.46-.83.83-1.57,1.14-2.24.1-.59-2.13-4.67-2.28-4.94v-.02c1.49,1.59,2.19,2.64,2.76,3.86.58-1.42,1.72-4.2,2.95-5.49"/>
    <path class="cls-4" d="M28.81,243.75c-5.02-2.3-1.92-11.43,5.61-3.43,1.17,1.25,3.84.29,3.94-2.01.14-3.45,8.83-1.39,5.61,6.93-1.13,2.92,3.65,4.5,5.22-.71,2.46-8.18,14.35,2.82,4.95,7.6-1.7.87-3.96,5.89,4.23,1.04,1.82-1.08,8.54,2.03,5.08,6.13-2.02,2.4-3.82,5.19-2.99,8.13,1.08,3.86,2.17.61-6.61,1.81-3.76.52-15.08,4.65-15.31-1.85-.08-2.23,9.58-6.38.9-6.53-3.46-.06-9.65,1.93-12.65-3.45-2.1-3.76,18.69-5.62,2.55-5.78-5.59-.06-9.12-4.93-1.37-5.49,1.25-.09,3.37-1.26.85-2.41"/>
    <path class="cls-2" d="M28.81,243.75c-5.02-2.3-1.92-11.43,5.61-3.43,1.17,1.25,3.84.29,3.94-2.01.14-3.45,8.83-1.39,5.61,6.93-1.13,2.92,3.65,4.5,5.22-.71,2.46-8.18,14.35,2.82,4.95,7.6-1.7.87-3.96,5.89,4.23,1.04,1.82-1.08,8.54,2.03,5.08,6.13-2.02,2.4-3.82,5.19-2.99,8.13,1.08,3.86,2.17.61-6.61,1.81-3.76.52-15.08,4.65-15.31-1.85-.08-2.23,9.58-6.38.9-6.53-3.46-.06-9.65,1.93-12.65-3.45-2.1-3.76,18.69-5.62,2.55-5.78-5.59-.06-9.12-4.93-1.37-5.49,1.25-.09,3.37-1.26.85-2.41Z"/>
    <path class="cls-5" d="M34.23,243.75c1.01,1.01,1.86,1.75,2.66,2.46.3.26.59.52.88.78.38-.47.39-1.73,1.74-2.62-.37.6-.6,1.18-.69,1.78-.1.58-.08,1.19.04,1.86.72.71,1.49,1.54,2.38,2.65,1.32,1.64,2.6,3.21,3.92,4.7.23-1.39,2.82-5.21,6.44-6.73-.28.29-.6.59-.95.92-1.96,1.87-5.01,4.76-4.49,6.91.64.69,1.3,1.37,1.98,2.02,1.83,1.76,3.83,3.4,6.19,4.93.06-1.08.15-3.75,3.1-5.09l-.14.14c-1.81,2.3-1.83,2.64-1.99,5.46v.1c1.7,1.04,3.56,2.44,5.26,3.97,0,.16.03.33.06.5.05.31,0,.56-.11.75-1.69-1.76-3.71-3.41-5.76-4.65-.33.07-.73.09-1.22.12-1.7.11-4.57.3-8.53,2.48,1.17-2.08,7.04-3.16,8.69-3.28-2.39-1.55-4.42-3.22-6.28-5.01-.68-.65-1.33-1.32-1.97-2.01-2.94-.67-4.63-.46-7.35-.11-.71.09-1.5.19-2.43.29,3.09-1.21,7.3-1.41,8.93-1.11-1.41-1.57-2.76-3.22-4.15-4.96-.57-.71-1.09-1.3-1.58-1.82-.5-.32-5.4-.14-5.72-.13h-.03c2.2-.58,3.52-.72,4.93-.69-1.06-1.03-3.16-3.07-3.8-4.59"/>
    <path class="cls-4" d="M40.51,120.53c7.15,1.18-.38,8.46,2.81,13.4,1.87,2.89,5.69.37-1.92,10.71-4.23,5.74,3.92,2.81,6.5,7.18,1.07,1.82-2.15,7.64-4.46,9.35-4.14,3.07-7.24,1.34-9.83,4.06-3.1,3.26,4.64,1.86,5.44,2.38,2.12,1.38.99,5.5-1.37,6.48-5.33-1.68-4.53.74-.56,2.39,1.49.56.2,6.1-5.08,2.36-2.94-2.77-10.62.33.88,4.52.26,7.96-12.5,5.95-13.91,7.59-2.56,2.99,6.29-.23-.88,6.77-1.82,1.78-5.2,3.88-7.35,5.02-3.94,2.1-11.88-16.95-3.25-17.07,3.26-.05-2.04-10.59-2.56-13.58-2.51-14.52,6.05-7.12,6.12-7.14.81-3.73-3.03-6.14-1.05-9.66,4.12-4.79,5,7.52,7.01,3.99,1.08-2.49-2.63-10.73-2.99-17.15-.27-4.7,1.11-8.4,4.86-5.95,3.67,2.39,10.15,6.83,7.94-3.37-.42-1.95,1.16-4.37,4.04-1.88,4.49,3.88,4.56-6.17,7.62-9.85.52-.62.96-.73,1.99-.56"/>
    <path class="cls-3" d="M40.51,120.53c7.15,1.18-.38,8.46,2.81,13.4,1.87,2.89,5.69.37-1.92,10.71-4.23,5.74,3.92,2.81,6.5,7.18,1.07,1.82-2.15,7.64-4.46,9.35-4.14,3.07-7.24,1.34-9.83,4.06-3.1,3.26,4.64,1.86,5.44,2.38,2.12,1.38.99,5.5-1.37,6.48-5.33-1.68-4.53.74-.56,2.39,1.49.56.2,6.1-5.08,2.36-2.94-2.77-10.62.33.88,4.52.26,7.96-12.5,5.95-13.91,7.59-2.56,2.99,6.29-.23-.88,6.77-1.82,1.78-5.2,3.88-7.35,5.02-3.94,2.1-11.88-16.95-3.25-17.07,3.26-.05-2.04-10.59-2.56-13.58-2.51-14.52,6.05-7.12,6.12-7.14.81-3.73-3.03-6.14-1.05-9.66,4.12-4.79,5,7.52,7.01,3.99,1.08-2.49-2.63-10.73-2.99-17.15-.27-4.7,1.11-8.4,4.86-5.95,3.67,2.39,10.15,6.83,7.94-3.37-.42-1.95,1.16-4.37,4.04-1.88,4.49,3.88,4.56-6.17,7.62-9.85.52-.62.96-.73,1.99-.56Z"/>
    <path class="cls-5" d="M38.51,131.52c-1.49,4.24-3.25,8.59-5.14,13,2.08-2.1,4.01-3.11,5.73-4.64,0,0-3.26,3.73-5.25,5.73-.4.4-1.04,1-1.54,1.47-1.81,4.12-3.72,8.16-5.64,12.37-.64,1.39-1.27,2.78-1.91,4.18.75-.33,1.7-.72,2.74-1.15,2.16-.9,11.79-6.84,12.65-7.68-1.18,2.32-8.21,7.18-12.46,8.95-1.6.67-2.97,1.23-3.7,1.59-3.14,6.92-6.2,13.88-8.76,20.77,1.66-.88,6.58-2.39,10.16-1.59-.87.25-1.81.43-2.82.63-2.46.48-5.32,1.04-7.99,2.72-3.15,8.73-5.07,13.59-5.67,21.78l-1.99-.06c.63-8.63,3.18-14.04,6.53-23.19-.05-1.86.37-1.6-.96-3.48-1.34-1.9-1.56-4.38-2.15-6.58-.2-.77-.91-4.7-1.23-4.87.8.42,1.24,2.05,1.77,4.07.56,2.11,1.24,4.67,2.45,6.4.55.78,1.25,1.08,1.56,2.06,2.91-7.67,6.16-14.78,9.66-22.45h-.03c.32-1.33-.44-3.14-1.29-5.15-1.06-2.51-1.93-7.13-1.53-10.21.31,2.12,1.28,6.54,2.5,9.45.56,1.33,1.09,2.58,1.33,3.77l.22-.48c1.87-4.08,4.67-8.05,4.44-12.36-.15-2.9-.12-8-.12-8,.77,3.16,1.08,6.04,1.21,8.12,1.15-2.61,4.74-10.85,7.22-15.17"/>
    <path class="cls-4" d="M23.88,198.04c-1.12-7.37,11.23-11.96,7.86,3.04-.52,2.33,2.48,4.37,5.08,2.48,3.91-2.84,7.97,8.26-3.57,12.01-4.05,1.32-2.32,7.81,4.57,4.98,10.83-4.45,7.33,17.82-4.79,11.89-2.2-1.07-9.39.87,1.93,5.44,2.51,1.01,3.97,10.9-3.07,10.76-4.13-.08-8.5.41-11.16,3.84-3.47,4.49.91,2.85-6.81-5.51-3.31-3.58-16.11-12.12-9.09-18.01,2.4-2.01,14.01,4.74,7.87-4.69-2.45-3.76-9.15-8.66-5.4-16.54,2.62-5.51,19.8,15.15,8.24-2.28-4-6.03-1.19-14.04,5.06-6.22,1.01,1.27,3.84,2.51,3.28-1.18"/>
    <path class="cls-3" d="M23.88,198.04c-1.12-7.37,11.23-11.96,7.86,3.04-.52,2.33,2.48,4.37,5.08,2.48,3.91-2.84,7.97,8.26-3.57,12.01-4.05,1.32-2.32,7.81,4.57,4.98,10.83-4.45,7.33,17.82-4.79,11.89-2.2-1.07-9.39.87,1.93,5.44,2.51,1.01,3.97,10.9-3.07,10.76-4.13-.08-8.5.41-11.16,3.84-3.47,4.49.91,2.85-6.81-5.51-3.31-3.58-16.11-12.12-9.09-18.01,2.4-2.01,14.01,4.74,7.87-4.69-2.45-3.76-9.15-8.66-5.4-16.54,2.62-5.51,19.8,15.15,8.24-2.28-4-6.03-1.19-14.04,5.06-6.22,1.01,1.27,3.84,2.51,3.28-1.18Z"/>
    <path class="cls-5" d="M27.83,203.85c-.39,1.96-.58,3.51-.77,4.98-.07.55-.14,1.08-.22,1.62.8,0,2.19-1.08,4.16-.41-.93.12-1.73.38-2.47.8-.71.4-1.36.95-2.02,1.65-.26,1.39-.61,2.93-1.19,4.84-.86,2.84-1.66,5.56-2.34,8.27,1.7-.96,7.8-1.49,12.11,1.08-.53-.06-1.09-.13-1.71-.22-3.49-.49-8.9-1.24-10.9,1.17-.3,1.29-.56,2.57-.79,3.87-.62,3.48-.97,7.05-.93,10.9,1.24-.87,4.25-3.08,7.88-1.09l-.25-.04c-3.85.06-4.25.33-7.48,2.6l-.11.08c.19,5.5.84,7.16-1.03,11.89l-1.67-.37c1.81-4.56,1.85-6.29,1.67-11.6-.31-.3-.63-.71-1.03-1.2-1.36-1.72-3.65-4.63-8.95-6.99,3.15-.55,8.61,4.8,9.94,6.47-.03-3.91.34-7.53.96-11.07.23-1.29.49-2.57.78-3.85-1.4-3.73-2.87-5.36-5.22-7.97-.62-.69-1.3-1.44-2.09-2.36,3.59,2.26,6.86,6.6,7.73,8.6.71-2.87,1.55-5.75,2.46-8.74.37-1.23.65-2.29.86-3.27-.02-.82-3.77-5.91-4.01-6.24l-.02-.03c2.24,1.85,3.36,3.14,4.35,4.68.37-2.04,1.09-6.05,2.29-8.05"/>
    <path class="cls-4" d="M69.93,212.21c-5.15.45-1.49,5.79-4.7,9-1.88,1.88-3.98-.03-.89,7.4,1.71,4.13-3.27,1.72-5.94,4.57-1.11,1.19-.1,5.31,1.13,6.6,2.21,2.3,4.69,1.27,5.9,3.25,1.45,2.38-3.57,1.04-4.23,1.35-1.74.84-1.82,3.7-.4,4.49,4-.88,2.95.73-.11,1.66-1.14.31-1.4,4.15,3,1.86,2.59-1.74,7.22.75-1.54,3.04-1.82,5.41,7.34,4.67,7.97,5.86,1.14,2.17-4.27-.47-.79,4.66.88,1.3,2.77,2.9,4,3.79,2.27,1.62,11.65-10.97,5.76-11.48-2.23-.19,3.59-7.12,4.56-9.13,4.72-9.78-2.68-5.15-2.72-5.17.21-2.58,3.35-4.04,2.72-6.53-1.84-3.47-4.99,4.88-5.63,2.38-.23-1.75,3.58-5.4,4.5-9.94.4-1.99-.45-4.12-1.58-4.14-3.34-.05-7.81,2.39-4.18-4.46.69-1.31.11-3.04-2.39-1.48-3.88,2.42-1.86-4.43-3.19-7.1-.23-.45-.51-.54-1.25-.48"/>
    <path class="cls-3" d="M69.93,212.21c-5.15.45-1.49,5.79-4.7,9-1.88,1.88-3.98-.03-.89,7.4,1.71,4.13-3.27,1.72-5.94,4.57-1.11,1.19-.1,5.31,1.13,6.6,2.21,2.3,4.69,1.27,5.9,3.25,1.45,2.38-3.57,1.04-4.23,1.35-1.74.84-1.82,3.7-.4,4.49,4-.88,2.95.73-.11,1.66-1.14.31-1.4,4.15,3,1.86,2.59-1.74,7.22.75-1.54,3.04-1.82,5.41,7.34,4.67,7.97,5.86,1.14,2.17-4.27-.47-.79,4.66.88,1.3,2.77,2.9,4,3.79,2.27,1.62,11.65-10.97,5.76-11.48-2.23-.19,3.59-7.12,4.56-9.13,4.72-9.78-2.68-5.15-2.72-5.17.21-2.58,3.35-4.04,2.72-6.53-1.84-3.47-4.99,4.88-5.63,2.38-.23-1.75,3.58-5.4,4.5-9.94.4-1.99-.45-4.12-1.58-4.14-3.34-.05-7.81,2.39-4.18-4.46.69-1.31.11-3.04-2.39-1.48-3.88,2.42-1.86-4.43-3.19-7.1-.23-.45-.51-.54-1.25-.48Z"/>
    <path class="cls-5" d="M69.03,219.81c.15,2.97.45,6.02.84,9.12-.99-1.54-2.11-2.32-2.97-3.44,0,0,1.47,2.71,2.42,4.17.19.3.51.74.75,1.08.39,2.9.86,5.75,1.31,8.71.15.98.3,1.96.45,2.95-.44-.26-1.01-.57-1.64-.92-1.3-.72-6.67-5.25-7.09-5.86.33,1.64,4.15,5.3,6.7,6.72.96.53,1.78.99,2.21,1.27.72,4.87,1.38,9.78,1.72,14.6-.96-.68-4.02-1.96-6.64-1.59.54.21,1.15.39,1.8.57,1.59.45,3.44.98,4.92,2.25.36,6.11.67,9.52-.61,15.13l1.38.06c1.35-5.92.72-9.73.31-16.14.42-1.27.08-1.11,1.38-2.33,1.31-1.23,1.98-2.91,2.83-4.38.3-.51,1.59-3.16,1.85-3.26-.64.24-1.27,1.34-2.06,2.69-.82,1.41-1.81,3.12-3.01,4.25-.54.51-1.08.67-1.5,1.33-.41-5.38-1.17-10.38-1.99-15.79h.02c.06-.92.95-2.12,1.94-3.44,1.24-1.66,2.8-4.77,3.16-6.88-.65,1.43-2.23,4.39-3.67,6.32-.66.88-1.28,1.71-1.69,2.51l-.05-.34c-.44-2.87-1.54-5.72-.49-8.65.71-1.97,1.73-5.45,1.73-5.45-1.18,2.12-1.99,4.07-2.5,5.48-.25-1.84-1.01-7.63-1.82-10.7"/>
    <path class="cls-4" d="M32.82,271.36c-3.24-1.08-2.2-11.31,3.07-4.97.82.99,2.35-.69,2.19-3.08-.23-3.6,5.21-3.7,4.02,5.71-.42,3.31,2.62,3.71,3.08-2.06.74-9.08,8.92-.77,3.68,6.58-.95,1.33-1.85,7.1,2.65,0,1-1.58,5.34-.1,3.63,5.03-1,3-1.83,6.33-1.06,9.16,1,3.7,1.36.07-3.82,3.56-2.23,1.5-8.68,8.67-9.41,2.01-.25-2.28,5.2-9.04-.05-6.97-2.09.82-5.65,4.46-7.95-.32-1.61-3.35,10.77-10.59,1.01-6.62-3.38,1.37-5.95-2.75-1.33-5.31.75-.41,1.92-2.17.29-2.71"/>
    <path class="cls-3" d="M32.82,271.36c-3.24-1.08-2.2-11.31,3.07-4.97.82.99,2.35-.69,2.19-3.08-.23-3.6,5.21-3.7,4.02,5.71-.42,3.31,2.62,3.71,3.08-2.06.74-9.08,8.92-.77,3.68,6.58-.95,1.33-1.85,7.1,2.65,0,1-1.58,5.34-.1,3.63,5.03-1,3-1.83,6.33-1.06,9.16,1,3.7,1.36.07-3.82,3.56-2.23,1.5-8.68,8.67-9.41,2.01-.25-2.28,5.2-9.04-.05-6.97-2.09.82-5.65,4.46-7.95-.32-1.61-3.35,10.77-10.59,1.01-6.62-3.38,1.37-5.95-2.75-1.33-5.31.75-.41,1.92-2.17.29-2.71Z"/>
    <path class="cls-5" d="M36.1,269.96c.7.79,1.28,1.33,1.83,1.85.2.19.4.38.6.58.18-.58.08-1.88.81-3.16-.17.71-.25,1.37-.26,2.02,0,.62.06,1.24.2,1.91.5.55,1.04,1.2,1.68,2.12.95,1.36,1.86,2.65,2.79,3.85,0-1.49,1.23-6.09,3.27-8.59-.15.37-.31.76-.49,1.19-1.01,2.43-2.59,6.2-2.08,8.28.45.55.91,1.08,1.38,1.58,1.26,1.35,2.62,2.53,4.19,3.5-.06-1.14-.25-3.91,1.41-6.05l-.07.18c-.88,2.84-.86,3.2-.7,6.15v.1c2.27,1.28,5.09,3.96,6.56,6.55l-.98.26c-1.42-2.5-3.66-4.85-5.85-6.08-.19.15-.43.28-.73.44-1.01.55-2.73,1.48-4.92,4.75.51-2.45,3.96-5.07,4.95-5.61-1.58-.99-2.97-2.19-4.25-3.56-.47-.5-.93-1.03-1.37-1.57-1.84.06-2.84.72-4.45,1.77-.42.28-.89.58-1.44.92,1.76-2.04,4.28-3.32,5.29-3.44-.99-1.26-1.96-2.62-2.96-4.06-.41-.59-.78-1.07-1.12-1.47-.33-.2-3.27,1.23-3.46,1.33h-.02c1.27-1.15,2.06-1.64,2.91-1.97-.74-.79-2.19-2.36-2.72-3.76"/>
    <path class="cls-4" d="M119.93,297.71c-2.88-1.85.64-11.5,4.2-4.07.55,1.16,2.44-.09,2.88-2.45.66-3.54,5.95-2.31,2.5,6.53-1.21,3.1,1.62,4.24,3.5-1.24,2.94-8.62,8.84,1.44,1.96,7.28-1.25,1.06-3.53,6.43,2.57.64,1.35-1.28,5.2,1.22,2.28,5.76-1.71,2.66-3.33,5.69-3.28,8.62.06,3.84,1.3.4-4.58,2.51-2.52.91-10.54,6.28-9.62-.36.32-2.27,7.26-7.49,1.66-6.77-2.23.29-6.57,2.94-7.63-2.26-.74-3.64,13.04-7.62,2.6-6.17-3.61.5-5.1-4.13.01-5.47.83-.22,2.39-1.63.95-2.55"/>
    <path class="cls-3" d="M119.93,297.71c-2.88-1.85.64-11.5,4.2-4.07.55,1.16,2.44-.09,2.88-2.45.66-3.54,5.95-2.31,2.5,6.53-1.21,3.1,1.62,4.24,3.5-1.24,2.94-8.62,8.84,1.44,1.96,7.28-1.25,1.06-3.53,6.43,2.57.64,1.35-1.28,5.2,1.22,2.28,5.76-1.71,2.66-3.33,5.69-3.28,8.62.06,3.84,1.3.4-4.58,2.51-2.52.91-10.54,6.28-9.62-.36.32-2.27,7.26-7.49,1.66-6.77-2.23.29-6.57,2.94-7.63-2.26-.74-3.64,13.04-7.62,2.6-6.17-3.61.5-5.1-4.13.01-5.47.83-.22,2.39-1.63.95-2.55Z"/>
    <path class="cls-5" d="M123.45,297.16c.49.94.92,1.61,1.32,2.25.15.24.3.47.44.71.32-.52.54-1.81,1.56-2.86-.34.65-.58,1.26-.74,1.89-.16.6-.24,1.22-.28,1.89.35.65.71,1.42,1.11,2.47.58,1.55,1.15,3.02,1.76,4.41.38-1.45,2.68-5.61,5.28-7.53-.23.32-.49.66-.77,1.04-1.58,2.11-4.03,5.37-4.05,7.52.3.64.62,1.27.95,1.87.89,1.62,1.92,3.09,3.2,4.42.22-1.12.71-3.85,2.85-5.52l-.12.15c-1.55,2.53-1.62,2.89-2.19,5.79l-.02.1c1.89,1.8,3.96,5.09,4.75,7.96h-1.02c-.76-2.76-2.36-5.58-4.18-7.32-.23.1-.49.17-.81.25-1.12.28-3.01.76-5.94,3.4,1.1-2.25,5.08-3.94,6.17-4.22-1.29-1.35-2.34-2.85-3.24-4.5-.33-.6-.65-1.22-.95-1.86-1.8-.39-2.93,0-4.75.62-.48.16-1,.34-1.62.54,2.2-1.55,4.96-2.17,5.97-2.04-.65-1.47-1.26-3.02-1.87-4.66-.25-.67-.49-1.22-.72-1.7-.27-.28-3.47.39-3.68.44h-.02c1.52-.81,2.4-1.09,3.31-1.2-.52-.95-1.54-2.83-1.71-4.31"/>
    <path class="cls-4" d="M55.03,283.69c-5.66-1.88-5.92-18.2,4.19-7.82,1.57,1.61,3.81-1,3.08-4.83-1.1-5.76,8.02-5.68,7.88,9.33-.05,5.27,5.12,6.06,4.78-3.16-.54-14.49,14.85-.82,7.48,10.7-1.33,2.09-1.72,11.27,4.45.11,1.37-2.48,8.96.09,7.09,8.21-1.09,4.75-1.83,10.05.01,14.61,2.41,5.97,2.3.18-5.73,5.52-3.45,2.29-12.89,13.47-15.43,2.78-.87-3.66,6.97-14.22-1.45-11.16-3.35,1.22-8.61,6.88-13.43-.88-3.37-5.43,16.02-16.45.39-10.55-5.41,2.04-10.55-4.68-3.28-8.56,1.18-.63,2.8-3.38-.04-4.32"/>
    <path class="cls-3" d="M55.03,283.69c-5.66-1.88-5.92-18.2,4.19-7.82,1.57,1.61,3.81-1,3.08-4.83-1.1-5.76,8.02-5.68,7.88,9.33-.05,5.27,5.12,6.06,4.78-3.16-.54-14.49,14.85-.82,7.48,10.7-1.33,2.09-1.72,11.27,4.45.11,1.37-2.48,8.96.09,7.09,8.21-1.09,4.75-1.83,10.05.01,14.61,2.41,5.97,2.3.18-5.73,5.52-3.45,2.29-12.89,13.47-15.43,2.78-.87-3.66,6.97-14.22-1.45-11.16-3.35,1.22-8.61,6.88-13.43-.88-3.37-5.43,16.02-16.45.39-10.55-5.41,2.04-10.55-4.68-3.28-8.56,1.18-.63,2.8-3.38-.04-4.32Z"/>
    <path class="cls-5" d="M60.26,281.61c1.34,1.29,2.42,2.19,3.44,3.05.38.32.75.63,1.13.95.19-.93-.24-3.01.74-5.01-.14,1.13-.15,2.17-.03,3.22.11.99.35,1.99.7,3.06.95.9,1.99,1.98,3.24,3.47,1.86,2.22,3.65,4.32,5.45,6.28-.28-2.39.86-9.69,3.82-13.6-.17.59-.37,1.2-.59,1.89-1.23,3.84-3.13,9.8-1.87,13.15.87.9,1.74,1.76,2.63,2.59,2.39,2.22,4.9,4.17,7.73,5.79-.32-1.82-1.19-6.26,1.18-9.62l-.09.28c-.92,4.5-.82,5.08.02,9.81l.03.16c2.01,1.06,4.31,2.68,6.49,4.56.07.26.15.54.24.81.16.49.2.92.17,1.29-2.26-2.27-4.79-4.22-7.21-5.5-.29.23-.67.43-1.13.67-1.6.83-4.3,2.24-7.34,7.37.38-3.89,5.66-7.93,7.22-8.75-2.86-1.66-5.42-3.64-7.84-5.89-.89-.83-1.76-1.68-2.62-2.58-3.08.02-4.63,1.02-7.13,2.62-.66.42-1.38.89-2.24,1.41,2.55-3.19,6.54-5.12,8.21-5.26-1.92-2.07-3.81-4.29-5.77-6.63-.8-.96-1.51-1.74-2.17-2.41-.6-.33-5.26,1.82-5.56,1.96h-.02c1.91-1.79,3.13-2.53,4.51-3.02-1.39-1.3-4.14-3.88-5.3-6.14"/>
    <path class="cls-4" d="M90.31,263.5c-4.04-4.04,1.31-17.74,6.13-4.68.75,2.03,3.49.83,4.19-2.67,1.06-5.28,8.57-1.23,3.33,11.21-1.84,4.37,2.17,7.29,5.03-.54,4.5-12.3,12.55,5.81,2.54,12.17-1.81,1.15-5.26,8.64,3.64,2.04,1.98-1.46,7.37,3.99,3.05,9.93-2.53,3.48-4.94,7.57-4.98,12.17-.04,6.03,1.85,1.15-6.62,2.09-3.63.4-15.25,5.59-13.7-4.42.53-3.43,10.61-8.8,2.61-9.93-3.19-.45-9.47,1.97-10.8-6.6-.93-5.99,18.85-6.7,3.92-8.61-5.17-.66-7.12-8.51.21-8.56,1.19,0,3.47-1.59,1.44-3.61"/>
    <path class="cls-3" d="M90.31,263.5c-4.04-4.04,1.31-17.74,6.13-4.68.75,2.03,3.49.83,4.19-2.67,1.06-5.28,8.57-1.23,3.33,11.21-1.84,4.37,2.17,7.29,5.03-.54,4.5-12.3,12.55,5.81,2.54,12.17-1.81,1.15-5.26,8.64,3.64,2.04,1.98-1.46,7.37,3.99,3.05,9.93-2.53,3.48-4.94,7.57-4.98,12.17-.04,6.03,1.85,1.15-6.62,2.09-3.63.4-15.25,5.59-13.7-4.42.53-3.43,10.61-8.8,2.61-9.93-3.19-.45-9.47,1.97-10.8-6.6-.93-5.99,18.85-6.7,3.92-8.61-5.17-.66-7.12-8.51.21-8.56,1.19,0,3.47-1.59,1.44-3.61Z"/>
    <path class="cls-5" d="M95.34,264.06c.66,1.66,1.25,2.88,1.8,4.04.21.43.41.85.61,1.29.48-.69.83-2.61,2.32-3.85-.5.88-.87,1.74-1.12,2.66-.24.88-.39,1.81-.46,2.85.48,1.16.97,2.51,1.49,4.31.78,2.66,1.54,5.19,2.36,7.61.58-2.11,4.02-7.7,7.79-9.66-.34.41-.72.84-1.13,1.31-2.32,2.66-5.93,6.79-6.03,10.14.41,1.13.83,2.23,1.29,3.31,1.22,2.89,2.63,5.61,4.41,8.2.35-1.66,1.15-5.74,4.26-7.49l-.17.19c-2.3,3.34-2.41,3.87-3.33,8.18l-.03.15c2.63,3.57,5.46,9.54,6.49,14.36l-1.45-.39c-.99-4.65-3.17-9.7-5.7-13.15-.32.07-.7.07-1.17.06-1.61,0-4.32,0-8.58,2.93,1.64-3.07,7.38-4.13,8.95-4.13-1.8-2.63-3.23-5.4-4.47-8.33-.45-1.07-.88-2.17-1.29-3.29-2.55-1.33-4.17-1.18-6.79-.93-.69.06-1.44.14-2.33.19,3.2-1.54,7.15-1.41,8.58-.79-.88-2.56-1.68-5.23-2.51-8.04-.34-1.15-.66-2.11-.97-2.96-.38-.54-4.97-.78-5.27-.79h-.02c2.19-.66,3.46-.75,4.76-.56-.71-1.69-2.1-5.04-2.29-7.43"/>
    <path class="cls-4" d="M75.1,312c.68-8.21,5.69-1.13,8.96-5.61,1.91-2.62.16-6.44,7.22.19,3.92,3.67,1.82-4.9,4.72-8.59,1.21-1.54,5.16,1,6.35,3.27,2.12,4.07,1.01,7.85,2.88,10.25,2.24,2.87,1.17-5.53,1.51-6.53.9-2.62,3.68-2.12,4.37.34-1.05,6.27.57,4.93,1.61.19.35-1.77,4.1-1.34,1.67,5.25-1.81,3.8.39,11.82,3.02-1.81,5.34-1.75,4.19,12.89,5.32,14.16,2.05,2.32-.25-6.99,4.56-.26,1.22,1.71,2.69,5.11,3.49,7.29,1.47,4.02-11.19,16.4-11.41,6.77-.08-3.64-7.08,4.23-9.08,5.35-9.72,5.47-4.88-5.46-4.89-5.53-2.52-.22-4.07,4.51-6.47,2.95-3.28-3.73,4.97-6.98,2.57-8.57-1.69-.75-7.17,4.91-11.47,6.49-3.15,1.17-5.66.3-4.07-4.34,1.55-4.54,4.42-12.61-2.39-8.26-1.3.83-2.95-.49-1.33-4.18,2.54-5.74-4.22-3.97-6.74-6.72-.43-.46-.5-.94-.4-2.12"/>
    <path class="cls-3" d="M75.1,312c.68-8.21,5.69-1.13,8.96-5.61,1.91-2.62.16-6.44,7.22.19,3.92,3.67,1.82-4.9,4.72-8.59,1.21-1.54,5.16,1,6.35,3.27,2.12,4.07,1.01,7.85,2.88,10.25,2.24,2.87,1.17-5.53,1.51-6.53.9-2.62,3.68-2.12,4.37.34-1.05,6.27.57,4.93,1.61.19.35-1.77,4.1-1.34,1.67,5.25-1.81,3.8.39,11.82,3.02-1.81,5.34-1.75,4.19,12.89,5.32,14.16,2.05,2.32-.25-6.99,4.56-.26,1.22,1.71,2.69,5.11,3.49,7.29,1.47,4.02-11.19,16.4-11.41,6.77-.08-3.64-7.08,4.23-9.08,5.35-9.72,5.47-4.88-5.46-4.89-5.53-2.52-.22-4.07,4.51-6.47,2.95-3.28-3.73,4.97-6.98,2.57-8.57-1.69-.75-7.17,4.91-11.47,6.49-3.15,1.17-5.66.3-4.07-4.34,1.55-4.54,4.42-12.61-2.39-8.26-1.3.83-2.95-.49-1.33-4.18,2.54-5.74-4.22-3.97-6.74-6.72-.43-.46-.5-.94-.4-2.12Z"/>
    <path class="cls-5" d="M82.51,312.22c2.88.89,5.82,2.06,8.81,3.37-1.45-1.94-2.15-3.91-3.2-5.56,0,0,2.56,2.96,3.93,4.82.28.38.69.98,1.01,1.45,2.8,1.26,5.54,2.66,8.4,4.04.94.46,1.89.91,2.84,1.37-.23-.78-.51-1.76-.82-2.85-.64-2.25-4.78-11.93-5.36-12.73,1.58.89,4.95,7.87,6.2,12.29.47,1.67.88,3.09,1.12,3.85,4.7,2.24,9.42,4.38,14.09,5.99-.62-1.7-1.71-6.92-1.23-11.07.18.92.32,1.94.47,3.03.36,2.67.79,5.76,1.95,8.44,5.91,1.92,9.21,3.17,14.71,2.34v2.24c-5.82.88-9.49-.98-15.69-3.05-1.25.39-1.08-.12-2.32,1.71-1.26,1.84-2.91,2.55-4.38,3.61-.51.37-3.14,1.88-3.25,2.27.27-.97,1.36-1.76,2.71-2.73,1.4-1.01,3.11-2.24,4.26-3.92.52-.76.7-1.59,1.36-2.13-5.2-1.85-10.02-4.17-15.23-6.68v.03c-.9-.11-2.1,1.07-3.44,2.38-1.67,1.64-4.76,3.47-6.83,3.59,1.42-.74,4.37-2.63,6.31-4.53.89-.87,1.72-1.69,2.51-2.17l-.32-.16c-2.77-1.34-5.48-3.74-8.37-2.7-1.95.71-5.37,1.6-5.37,1.6,2.11-1.44,4.04-2.32,5.43-2.84-1.77-.8-7.36-3.31-10.3-5.29"/>
    <path class="cls-5" d="M264.48,154.17c.5-.14.97-.37,1.4-.71-.95-.22-1.36.08-1.4.71"/>
    <path class="cls-5" d="M253.28,134.88s0,0,0,0c0,0,0,0,0,0"/>
    <path class="cls-5" d="M348.13,224.79c7.86-9.8,2.95-18.11,5.99-26.05,6.7-17.48-2.63-11.26-1.99-18.24.52-5.67,6.1-20.7-2.5-19.96.98-3.21,0-9.71-5.37-10.81,2.62-9.11.55-21.39-9.52-16.44,2.12-2.86,4.69-34.12-2.3-33.24.55-1.19.68-2.61.79-4.04.17-2.29-1.86-4.12-4.11-3.71.52-4.31,1.67-10.25-2.41-12.52-2.9-1.61-10.53-1.88-12-2.59-1.67-.8-1.24-3.36-2.89-5.01-6.43-6.39-10.56,0-11.08,10.96-.12-5.29,1.03-13.82-8.05-11.26,2.46-6.69,6.85-20.33-5.89-17.82.63-10.59-5.1-9.69-10.67-6.75-2.75-10.02-14.3-4.98-12.37,4.12,0,0,.53,2.47.55,2.42-4.45-8.83-6.24-18.79-16.65-10.46-.75-8.86-9.88-6.16-11.36-4.59-.72.76-3.57,3.15-4.62,3.58-13.03,5.3-36.82-3.52-52.19-4.47-.35,14.4,1.98,29.38,2.42,44.27,11.07.8,23.69.8,32.11,8.05,14.33,12.34,35.08,19.54,34.66,22.09-.75,4.59.8,7.81,10.44,13.56,4.51,1.03-2.15,9.89-2.3,9.95-9.75,3.85,15.69,23.25,14.99,19.29.04-.64.45-.94,1.4-.71-.42.35-2.71,2.41-3.22,2.55-.19,3.16,9.66,10.1,10.04,10.4,1.9,1.54-5.27,8.27-4.68,10.66,1.36,5.43,12.94,7.82,9.89,9.07-6.94,2.86.14,13.46-14.12,18.81-10.87-3.16-15.13,8.4-6.48,17.39-4.54,1.04-4.07,5.41-1.24,9.08-9.83-1.96-5.9,14.41-4.82,15.35-2.31-.43-4.39.08-6.39,1.2-1.93,1.08-3.62,7.59-5.18,8.56-2.7,1.66-4.11-2.73-7.94.41-4.97,4.08-1.15,16.6-1.71,18.35-1.25,3.92-5,3.85-4.55,11.3-2.91-4.24-8.62-2.72-11.18,1.77-4.93,3.04-15.21,8.96-16.98,9.81-8.16,3.91-18.5,3.81-27.54,3.77-.38,5.31-.89,10.61-.89,16.16,1,3-4,6-3,8,3.83,7.66,4.45,17.85,4.06,28.57,16.94-.03,34.13-2.23,50.41-6.98,7.61-2.22,11.24-2.48,18.2-2.64,2.19-.05,4.4,2.53,6.87,1.6.66-.25,4.06-3.45,3.6-3.48,4.51.32,4.36.39,6.04-3.33,10.74,2.23,14.5-1.41,11.95-12.41,8.13.78,14.17-4.51,13.4-12.89,9.18,1.23,19.94-5.23,16.85-14.98,9.18,2.85,29.23-6.37,21.4-17.28,4.27-2.07,6.27-8.08,4.68-10.84-7.68-13.31,5.59-6.35,1.45-16.24,14.64,4.56,35.46-32.75,16.01-31.36"/>
    <path class="cls-4" d="M230.44,90.63c-3.62-1.57-6.99,4.45.86,4.61,1.22.03,1.99,1.9.81,3.05-1.77,1.72,3.48,5.36,6.36-.33,1.01-2,4.13-.21,2.12,3.11-3.17,5.22,8.36,6.27,6.4-1-.35-1.32,1.24-4.92,2.58,1.75.3,1.48,5.15,3.57,5.68-.23.31-2.22.93-4.5,2.89-5.47,2.56-1.27,1.36.86-2.2-4.37-1.53-2.24-4.74-10.23-8.3-7.24-1.22,1.02,1.19,8.14-3.03,3.6-1.68-1.81-3.58-6.04-7.88-5.07-3,.68,5.95,12.61-1.85,4.11-2.7-2.94-6.98-2.49-3.57,1.89.55.71.94,2.39-.87,1.61"/>
    <path class="cls-3" d="M230.44,90.63c-3.62-1.57-6.99,4.45.86,4.61,1.22.03,1.99,1.9.81,3.05-1.77,1.72,3.48,5.36,6.36-.33,1.01-2,4.13-.21,2.12,3.11-3.17,5.22,8.36,6.27,6.4-1-.35-1.32,1.24-4.92,2.58,1.75.3,1.48,5.15,3.57,5.68-.23.31-2.22.93-4.5,2.89-5.47,2.56-1.27,1.36.86-2.2-4.37-1.53-2.24-4.74-10.23-8.3-7.24-1.22,1.02,1.19,8.14-3.03,3.6-1.68-1.81-3.58-6.04-7.88-5.07-3,.68,5.95,12.61-1.85,4.11-2.7-2.94-6.98-2.49-3.57,1.89.55.71.94,2.39-.87,1.61Z"/>
    <path class="cls-5" d="M233.03,93.52c1.02.05,1.82.15,2.57.24.28.03.56.07.84.1-.07.42-.73,1.03-.56,2.18.14-.48.34-.88.62-1.22.26-.33.59-.61,1.01-.86.72.05,1.53.06,2.54,0,1.5-.08,2.95-.15,4.37-.16-.63.78-1.42,3.98-.49,6.63.02-.29.03-.6.04-.94.05-1.93.13-4.93,1.52-5.68.67,0,1.35.04,2.02.08,1.81.13,3.64.41,5.57.93-.54.55-1.92,1.87-1.22,4.08v-.14c.36-2.06.53-2.24,1.95-3.67l.05-.05c1.36.41,3,.73,4.62.9.09-.07.19-.14.29-.21.19-.12.3-.26.35-.42-1.74-.06-3.58-.34-5.22-.84-.12-.21-.3-.43-.52-.71-.75-.95-2.02-2.57-2.76-5.72-.55,1.61,1.68,5.25,2.41,6.18-1.97-.53-3.82-.81-5.66-.94-.67-.05-1.34-.07-2.01-.09-1.76-1.24-2.46-2.24-3.57-3.85-.29-.42-.62-.89-1.01-1.43.83,2.22,2.74,4.55,3.67,5.27-1.51,0-3.03.08-4.62.17-.65.04-1.21.04-1.72.03-.41-.12-2.66-2.8-2.8-2.97h-.01c.74,1.43,1.29,2.2,1.99,2.93-1.06-.07-3.14-.21-4.25.17"/>
    <path class="cls-4" d="M315.09,216.61c3.45-2.83-.87-9.33-5.09-1.52-.66,1.22-2.95,1.02-3.49-.75-.82-2.67-7.19.74-2.95,6.58,1.49,2.05-1.92,4.27-4.22.53-3.62-5.89-10.63,5.17-2.3,6.96,1.51.32,4.31,3.79-3.09,1.69-1.64-.46-6.25,3.35-2.7,5.85,2.08,1.46,4.05,3.26,4.02,5.74-.04,3.24-1.57.92,5.54.04,3.05-.38,12.75.52,11.58-4.62-.4-1.76-8.81-3-2.06-4.91,2.69-.76,7.94-.49,9.17-5.31.86-3.38-15.77-.52-3.18-3.99,4.35-1.2,6.11-5.74-.06-4.57-1,.19-2.89-.29-1.17-1.71"/>
    <path class="cls-3" d="M315.09,216.61c3.45-2.83-.87-9.33-5.09-1.52-.66,1.22-2.95,1.02-3.49-.75-.82-2.67-7.19.74-2.95,6.58,1.49,2.05-1.92,4.27-4.22.53-3.62-5.89-10.63,5.17-2.3,6.96,1.51.32,4.31,3.79-3.09,1.69-1.64-.46-6.25,3.35-2.7,5.85,2.08,1.46,4.05,3.26,4.02,5.74-.04,3.24-1.57.92,5.54.04,3.05-.38,12.75.52,11.58-4.62-.4-1.76-8.81-3-2.06-4.91,2.69-.76,7.94-.49,9.17-5.31.86-3.38-15.77-.52-3.18-3.99,4.35-1.2,6.11-5.74-.06-4.57-1,.19-2.89-.29-1.17-1.71Z"/>
    <path class="cls-5" d="M310.85,217.73c-.58,1-1.09,1.76-1.57,2.47-.18.27-.36.53-.53.79-.39-.29-.66-1.27-1.9-1.69.41.39.71.8.91,1.25.19.43.3.91.35,1.46-.42.7-.85,1.51-1.31,2.56-.69,1.56-1.37,3.05-2.09,4.48-.46-1.04-3.28-3.48-6.43-3.92.28.17.59.34.93.52,1.92,1.05,4.9,2.68,4.94,4.47-.36.67-.73,1.34-1.13,1.99-1.06,1.75-2.29,3.45-3.82,5.13-.27-.83-.89-2.9-3.48-3.34l.14.08c1.89,1.42,1.98,1.69,2.69,3.86l.02.07c-1.12,1.16-2.29,2.65-3.29,4.19.03.13.05.26.06.4.02.25.11.43.24.57.96-1.73,2.2-3.43,3.54-4.83.27-.02.59-.08.98-.16,1.35-.26,3.63-.71,7.18.18-1.34-1.39-6.16-1.01-7.47-.76,1.55-1.71,2.79-3.43,3.87-5.21.39-.65.77-1.31,1.12-1.98,2.16-1.13,3.53-1.32,5.72-1.61.58-.08,1.21-.16,1.96-.28-2.67-.31-6,.41-7.21.98.77-1.52,1.49-3.09,2.22-4.74.3-.67.58-1.24.86-1.75.33-.35,4.19-1.23,4.44-1.29h.02c-1.84,0-2.9.16-4,.47.62-1.03,1.83-3.05,2.02-4.37"/>
    <path class="cls-4" d="M234.69,47.74c-4.01-6.65-16.29-.85-3.89,8.38,1.93,1.44,1.01,5.33-2.18,5.82-4.8.74-.53,12.57,10.58,6.74,3.9-2.05,6.88,4.38-.15,7.4-11.04,4.75,6.24,19.61,11.42,5.7.94-2.52,7.6-6.47,2.14,5.75-1.21,2.71,4.2,11.61,9.38,6.12,3.04-3.21,6.64-6.16,10.89-5.48,5.56.89,1.19,2.93,1.47-9.52.12-5.34,4.09-21.82-5.04-21.1-3.12.25-7.38,14.41-8.98,2.31-.64-4.82,1.15-13.79-6.84-17.13-5.6-2.34-4.86,27.01-7.68,4.48-.97-7.8-8.35-11.95-7.89-1.04.08,1.77-1.22,4.91-3.23,1.58"/>
    <path class="cls-3" d="M234.69,47.74c-4.01-6.65-16.29-.85-3.89,8.38,1.93,1.44,1.01,5.33-2.18,5.82-4.8.74-.53,12.57,10.58,6.74,3.9-2.05,6.88,4.38-.15,7.4-11.04,4.75,6.24,19.61,11.42,5.7.94-2.52,7.6-6.47,2.14,5.75-1.21,2.71,4.2,11.61,9.38,6.12,3.04-3.21,6.64-6.16,10.89-5.48,5.56.89,1.19,2.93,1.47-9.52.12-5.34,4.09-21.82-5.04-21.1-3.12.25-7.38,14.41-8.98,2.31-.64-4.82,1.15-13.79-6.84-17.13-5.6-2.34-4.86,27.01-7.68,4.48-.97-7.8-8.35-11.95-7.89-1.04.08,1.77-1.22,4.91-3.23,1.58Z"/>
    <path class="cls-5" d="M235.55,55.32c1.58,1.25,2.75,2.32,3.86,3.33.41.37.82.74,1.23,1.11-.6.6-2.35.82-3.39,2.85.77-.61,1.55-1.02,2.38-1.25.79-.23,1.64-.3,2.6-.24,1.11.9,2.39,1.84,4.08,2.9,2.51,1.58,4.9,3.12,7.19,4.72-1.91.54-6.82,4.77-8.37,10.08.36-.44.73-.93,1.13-1.47,2.29-3.04,5.85-7.76,8.93-7.38,1.07.79,2.12,1.6,3.14,2.44,2.75,2.27,5.37,4.81,7.88,7.86-1.5.26-5.21.81-6.62,5.15l.17-.22c2.92-2.89,3.4-2.98,7.32-3.66l.13-.02c1.72,2.21,3.99,4.6,6.39,6.72.23-.01.47-.01.71,0,.44.02.77-.08,1.04-.27-2.73-2.09-5.35-4.64-7.42-7.3.04-.47.01-1.04-.02-1.73-.11-2.39-.31-6.43,2.11-12.32-2.72,1.96-3.29,10.34-3.19,12.67-2.55-3.09-5.21-5.67-8.01-7.98-1.02-.84-2.06-1.65-3.12-2.43-1.41-4.01-1.38-6.4-1.33-10.26.01-1.01.02-2.13.01-3.45-1.2,4.52-.8,10.43-.13,12.65-2.42-1.71-4.95-3.34-7.6-5.01-1.08-.68-1.99-1.31-2.8-1.91-.53-.65-1.07-7.52-1.1-7.97v-.04c-.46,3.16-.45,5.03-.18,7-1.61-1.32-4.8-3.93-7.01-4.58"/>
    <path class="cls-4" d="M274.7,50.54c-.27-6.33-11.39-8.99-6.1,3.34.82,1.92-1.37,3.93-3.86,2.59-3.75-2.02-5.33,7.75,4.96,9.79,3.61.72,3.22,6.37-3.02,4.65-9.82-2.7-3.23,15.76,5.97,9.57,1.67-1.12,8.02-.19-.73,4.78-1.94,1.1-1.55,9.59,4.34,8.78,3.45-.48,7.21-.49,10,2.15,3.65,3.45-.3,2.49,4.81-5.32,2.19-3.35,11.54-11.81,4.68-16.09-2.35-1.46-10.99,5.37-7.37-3.19,1.44-3.41,6.26-8.21,1.82-14.49-3.11-4.4-14.14,14.73-7.29-1.12,2.37-5.49-1.3-11.97-5.27-4.76-.64,1.17-2.81,2.5-2.95-.67"/>
    <path class="cls-3" d="M274.7,50.54c-.27-6.33-11.39-8.99-6.1,3.34.82,1.92-1.37,3.93-3.86,2.59-3.75-2.02-5.33,7.75,4.96,9.79,3.61.72,3.22,6.37-3.02,4.65-9.82-2.7-3.23,15.76,5.97,9.57,1.67-1.12,8.02-.19-.73,4.78-1.94,1.1-1.55,9.59,4.34,8.78,3.45-.48,7.21-.49,10,2.15,3.65,3.45-.3,2.49,4.81-5.32,2.19-3.35,11.54-11.81,4.68-16.09-2.35-1.46-10.99,5.37-7.37-3.19,1.44-3.41,6.26-8.21,1.82-14.49-3.11-4.4-14.14,14.73-7.29-1.12,2.37-5.49-1.3-11.97-5.27-4.76-.64,1.17-2.81,2.5-2.95-.67Z"/>
    <path class="cls-5" d="M272.34,55.83c.64,1.62,1.07,2.91,1.47,4.13.15.45.29.9.45,1.35-.67.07-2.02-.69-3.56.06.8.01,1.51.15,2.21.43.66.27,1.3.67,1.97,1.2.44,1.15.99,2.41,1.79,3.97,1.18,2.31,2.3,4.53,3.32,6.75-1.58-.65-6.79-.49-9.99,2.09.43-.1.89-.22,1.4-.35,2.85-.75,7.27-1.92,9.34-.08.46,1.06.9,2.12,1.3,3.19,1.09,2.88,1.97,5.86,2.57,9.11-1.19-.61-4.07-2.19-6.79-.14l.2-.06c3.24-.33,3.62-.14,6.71,1.46l.11.05c.74,4.67,2.82,10.93,5.16,14.74l.55-1.66c-2.26-3.67-4.14-8.76-4.86-13.26.21-.28.42-.66.67-1.12.86-1.59,2.31-4.27,6.37-6.77-2.73-.16-6.44,4.9-7.28,6.44-.62-3.3-1.52-6.32-2.62-9.25-.4-1.07-.84-2.13-1.29-3.17.57-3.29,1.53-4.81,3.08-7.24.41-.64.86-1.35,1.37-2.19-2.64,2.26-4.68,6.24-5.08,8.01-1.07-2.35-2.25-4.7-3.5-7.14-.51-1-.92-1.87-1.26-2.67-.12-.69,2.19-5.36,2.35-5.66v-.02c-1.56,1.78-2.29,2.98-2.87,4.38-.64-1.68-1.91-5-3.24-6.57"/>
    <path class="cls-4" d="M261,104.16c-2.99-6.51-14.5-4.52-4.24,6.12,1.6,1.65.43,4.7-2.47,4.37-4.36-.5-1.61,10.41,8.86,8.12,3.68-.8,5.76,5.28-.8,6.17-10.31,1.39,3.81,17.89,9.7,7.45,1.07-1.89,7.39-3.65,1.39,5.32-1.33,1.99,2.71,10.71,7.85,7.33,3.01-1.98,6.5-3.61,10.24-2.05,4.9,2.04.8,2.74,2.17-7.64.59-4.45,5.63-17.33-2.61-18.86-2.82-.52-7.91,10.35-8.24-.17-.14-4.19,2.28-11.28-4.58-15.96-4.8-3.27-6.79,21.5-7.27,1.96-.17-6.76-6.4-11.97-6.96-2.72-.09,1.5-1.54,3.83-3.04.56"/>
    <path class="cls-3" d="M261,104.16c-2.99-6.51-14.5-4.52-4.24,6.12,1.6,1.65.43,4.7-2.47,4.37-4.36-.5-1.61,10.41,8.86,8.12,3.68-.8,5.76,5.28-.8,6.17-10.31,1.39,3.81,17.89,9.7,7.45,1.07-1.89,7.39-3.65,1.39,5.32-1.33,1.99,2.71,10.71,7.85,7.33,3.01-1.98,6.5-3.61,10.24-2.05,4.9,2.04.8,2.74,2.17-7.64.59-4.45,5.63-17.33-2.61-18.86-2.82-.52-7.91,10.35-8.24-.17-.14-4.19,2.28-11.28-4.58-15.96-4.8-3.27-6.79,21.5-7.27,1.96-.17-6.76-6.4-11.97-6.96-2.72-.09,1.5-1.54,3.83-3.04.56Z"/>
    <path class="cls-5" d="M261.09,110.72c1.3,1.42,2.25,2.58,3.15,3.69.33.41.66.81,1,1.22-.59.36-2.18.14-3.29,1.59.75-.33,1.48-.49,2.24-.49.73,0,1.5.14,2.35.41.91,1.01,1.97,2.1,3.39,3.39,2.1,1.91,4.11,3.76,6.01,5.64-1.76,0-6.54,2.4-8.4,6.49.36-.29.74-.61,1.15-.97,2.33-2.01,5.94-5.13,8.66-4.1.89.91,1.75,1.83,2.59,2.78,2.26,2.55,4.37,5.28,6.34,8.43-1.37-.13-4.74-.54-6.39,2.77l.17-.15c2.88-1.74,3.32-1.7,6.88-1.36h.12c1.34,2.27,3.15,4.8,5.11,7.14.2.04.42.1.64.17.39.12.7.11.95.02-2.26-2.39-4.37-5.14-5.99-7.86.08-.38.1-.87.14-1.45.11-2.03.3-5.46,3-9.83-2.61,1.01-3.88,7.9-4,9.87-2.01-3.19-4.15-5.97-6.45-8.56-.84-.95-1.7-1.87-2.58-2.77-.9-3.69-.66-5.69-.27-8.91.1-.85.21-1.78.32-2.88-1.48,3.5-1.66,8.55-1.26,10.57-2.01-2-4.13-3.95-6.35-5.97-.91-.83-1.67-1.57-2.33-2.26-.41-.67-.28-6.55-.27-6.94v-.03c-.69,2.54-.86,4.11-.79,5.82-1.32-1.48-3.94-4.41-5.86-5.48"/>
    <path class="cls-4" d="M307.33,73.28c-5.16,1.48.25,6.39-2.07,10.4-1.36,2.35-4.11.75,1.36,7.97,3.03,4.01-2.84,2.46-4.71,5.99-.78,1.47,1.53,5.62,3.19,6.73,2.98,1.99,5.22.42,7.08,2.27,2.23,2.22-3.36,1.79-3.93,2.26-1.54,1.22-.73,4.26.97,4.8,3.85-1.72,3.27.19.4,1.77-1.08.55-.16,4.65,3.66,1.37,2.13-2.34,7.67-.62-.65,3.5-.21,6.06,9,3.48,10.01,4.61,1.84,2.06-4.54.35.62,5.07,1.31,1.2,3.74,2.52,5.28,3.2,2.83,1.27,8.62-13.84,2.4-13.22-2.35.23,1.51-8.21,1.88-10.52,1.85-11.23-4.34-4.9-4.39-4.91-.58-2.76,2.2-4.91.79-7.42-2.96-3.29-3.63,6.12-5.07,3.61-.77-1.8,1.93-8.36,2.21-13.26.21-3.59-.77-6.28-3.49-4.12-2.65,2.12-7.35,6.02-5.72-1.9.31-1.51-.82-3.22-2.91-1.09-3.25,3.32-3.27-4.31-5.47-6.85-.37-.43-.69-.47-1.43-.26"/>
    <path class="cls-3" d="M307.33,73.28c-5.16,1.48.25,6.39-2.07,10.4-1.36,2.35-4.11.75,1.36,7.97,3.03,4.01-2.84,2.46-4.71,5.99-.78,1.47,1.53,5.62,3.19,6.73,2.98,1.99,5.22.42,7.08,2.27,2.23,2.22-3.36,1.79-3.93,2.26-1.54,1.22-.73,4.26.97,4.8,3.85-1.72,3.27.19.4,1.77-1.08.55-.16,4.65,3.66,1.37,2.13-2.34,7.67-.62-.65,3.5-.21,6.06,9,3.48,10.01,4.61,1.84,2.06-4.54.35.62,5.07,1.31,1.2,3.74,2.52,5.28,3.2,2.83,1.27,8.62-13.84,2.4-13.22-2.35.23,1.51-8.21,1.88-10.52,1.85-11.23-4.34-4.9-4.39-4.91-.58-2.76,2.2-4.91.79-7.42-2.96-3.29-3.63,6.12-5.07,3.61-.77-1.8,1.93-8.36,2.21-13.26.21-3.59-.77-6.28-3.49-4.12-2.65,2.12-7.35,6.02-5.72-1.9.31-1.51-.82-3.22-2.91-1.09-3.25,3.32-3.27-4.31-5.47-6.85-.37-.43-.69-.47-1.43-.26Z"/>
    <path class="cls-5" d="M308.74,81.46c1.07,3.1,2.32,6.25,3.67,9.44-1.49-1.43-2.88-2.03-4.12-3.05,0,0,2.34,2.56,3.77,3.92.29.27.75.68,1.11.99,1.29,2.98,2.66,5.89,4.03,8.92.45,1,.91,2.01,1.37,3.01-.54-.18-1.22-.41-1.97-.65-1.56-.5-8.49-4.22-9.1-4.79.84,1.66,5.91,4.77,8.96,5.76,1.15.37,2.14.69,2.67.9,2.24,4.99,4.43,10.03,6.26,15.04-1.2-.53-4.74-1.27-7.33-.37.62.12,1.3.18,2.03.25,1.78.16,3.84.35,5.76,1.41,2.25,6.37,3.61,9.89,4.02,16.06l1.44-.21c-.43-6.5-2.25-10.39-4.65-17.06.04-1.42-.26-1.18.7-2.72.97-1.56,1.14-3.45,1.57-5.17.15-.6.67-3.64.9-3.79-.58.38-.9,1.66-1.29,3.24-.41,1.64-.9,3.64-1.79,5.06-.4.64-.9.92-1.13,1.7-2.08-5.58-4.4-10.71-6.9-16.24h.02c-.22-.99.33-2.42.94-4.01.77-1.99,1.42-5.57,1.14-7.87-.23,1.64-.94,5.07-1.83,7.37-.41,1.06-.79,2.05-.97,2.97l-.16-.34c-1.33-2.94-3.35-5.73-3.17-9.01.12-2.22.11-6.08.11-6.08-.56,2.46-.8,4.68-.89,6.26-.82-1.89-3.39-7.84-5.16-10.92"/>
    <path class="cls-4" d="M281.37,95.21c-2.6-4.87-11.53-1.22-3.08,5.81,1.31,1.09.52,3.82-1.76,4.05-3.43.35-.85,8.9,7.26,5.18,2.85-1.31,4.72,3.37-.39,5.25-8.02,2.95,3.69,14.16,7.89,4.48.76-1.75,5.64-4.31,1.3,4.16-.96,1.88,2.54,8.4,6.43,4.7,2.28-2.16,4.95-4.12,7.94-3.48,3.91.84.74,2.12,1.4-6.71.28-3.79,3.73-15.34-2.78-15.17-2.23.06-5.78,9.95-6.46,1.3-.27-3.45,1.34-9.75-4.21-12.42-3.88-1.87-4.47,19-5.62,2.89-.4-5.57-5.48-8.8-5.56-1.04-.01,1.26-1.05,3.44-2.36,1"/>
    <path class="cls-3" d="M281.37,95.21c-2.6-4.87-11.53-1.22-3.08,5.81,1.31,1.09.52,3.82-1.76,4.05-3.43.35-.85,8.9,7.26,5.18,2.85-1.31,4.72,3.37-.39,5.25-8.02,2.95,3.69,14.16,7.89,4.48.76-1.75,5.64-4.31,1.3,4.16-.96,1.88,2.54,8.4,6.43,4.7,2.28-2.16,4.95-4.12,7.94-3.48,3.91.84.74,2.12,1.4-6.71.28-3.79,3.73-15.34-2.78-15.17-2.23.06-5.78,9.95-6.46,1.3-.27-3.45,1.34-9.75-4.21-12.42-3.88-1.87-4.47,19-5.62,2.89-.4-5.57-5.48-8.8-5.56-1.04-.01,1.26-1.05,3.44-2.36,1Z"/>
    <path class="cls-5" d="M281.7,100.62c1.07.95,1.86,1.75,2.61,2.51.28.28.55.56.83.84-.45.4-1.7.5-2.51,1.89.57-.4,1.14-.67,1.74-.8.57-.13,1.18-.15,1.86-.07.75.68,1.63,1.39,2.79,2.21,1.72,1.22,3.36,2.4,4.93,3.62-1.38.31-5.02,3.13-6.32,6.84.27-.3.55-.63.86-1,1.74-2.07,4.45-5.29,6.62-4.9.73.6,1.44,1.21,2.14,1.85,1.87,1.71,3.63,3.62,5.3,5.88-1.08.13-3.73.38-4.89,3.41l.12-.15c2.18-1.94,2.53-1.99,5.33-2.32h.1c1.14,1.63,2.66,3.4,4.28,5,.16,0,.33,0,.51.03.31.03.55-.03.75-.15-1.86-1.59-3.63-3.5-5-5.47.05-.33.05-.74.05-1.23,0-1.7.02-4.58,1.96-8.67-2.01,1.29-2.73,7.22-2.74,8.88-1.7-2.29-3.48-4.22-5.38-5.96-.7-.64-1.4-1.25-2.13-1.85-.85-2.9-.74-4.6-.56-7.33.05-.72.1-1.51.14-2.45-1.02,3.16-.96,7.37-.57,8.98-1.65-1.31-3.39-2.56-5.2-3.84-.74-.52-1.37-1.01-1.91-1.46-.35-.48-.47-5.38-.48-5.7v-.02c-.45,2.23-.51,3.55-.39,4.96-1.1-1-3.26-2.97-4.81-3.52"/>
    <path class="cls-4" d="M311.47,131.6c2.63-4.85-5.35-10.29-6.54.64-.18,1.7-2.9,2.54-4.35.76-2.18-2.67-7.89,4.2-.32,8.91,2.66,1.65-.21,5.79-4.59,2.57-6.89-5.06-9.77,10.89.62,9.05,1.88-.33,6.71,2.33-2.75,3.38-2.1.23-5.6,6.75-.37,7.96,3.06.7,6.17,1.85,7.29,4.7,1.46,3.73-1.37,1.79,6.37-2.53,3.32-1.85,14.85-5.36,11.11-10.69-1.28-1.83-11.49.67-4.65-4.67,2.73-2.13,8.87-4.26,8.03-10.37-.58-4.27-18.31,6.76-5.51-3.09,4.43-3.41,4.32-9.43-2.21-5.21-1.06.68-3.45,1.02-2.13-1.41"/>
    <path class="cls-3" d="M311.47,131.6c2.63-4.85-5.35-10.29-6.54.64-.18,1.7-2.9,2.54-4.35.76-2.18-2.67-7.89,4.2-.32,8.91,2.66,1.65-.21,5.79-4.59,2.57-6.89-5.06-9.77,10.89.62,9.05,1.88-.33,6.71,2.33-2.75,3.38-2.1.23-5.6,6.75-.37,7.96,3.06.7,6.17,1.85,7.29,4.7,1.46,3.73-1.37,1.79,6.37-2.53,3.32-1.85,14.85-5.36,11.11-10.69-1.28-1.83-11.49.67-4.65-4.67,2.73-2.13,8.87-4.26,8.03-10.37-.58-4.27-18.31,6.76-5.51-3.09,4.43-3.41,4.32-9.43-2.21-5.21-1.06.68-3.45,1.02-2.13-1.41Z"/>
    <path class="cls-5" d="M307.14,134.87c-.2,1.42-.43,2.52-.65,3.56-.08.39-.16.77-.24,1.15-.59-.15-1.35-1.14-2.97-1.05.65.25,1.18.58,1.63,1.01.42.41.77.9,1.08,1.51-.15,1-.27,2.12-.31,3.55-.07,2.11-.14,4.13-.3,6.11-1.02-.98-5.38-2.46-9.19-1.5.4.06.83.11,1.31.16,2.69.31,6.87.79,7.74,2.81-.1.94-.22,1.87-.36,2.81-.4,2.51-1.01,5.02-1.98,7.66-.7-.83-2.38-2.9-5.54-2.2l.2.02c2.83.75,3.05,1.01,4.88,3.16l.06.07c-.74,1.85-1.38,4.1-1.82,6.34.09.13.18.28.26.44.15.28.33.45.54.54.29-2.43.91-4.96,1.8-7.18.3-.15.64-.37,1.05-.64,1.42-.93,3.83-2.51,8.31-3.15-2.18-.96-7.53,1.71-8.91,2.61.98-2.68,1.6-5.23,2-7.78.15-.93.27-1.86.36-2.79,1.95-2.31,3.43-3.15,5.8-4.51.62-.36,1.31-.75,2.12-1.23-3.2.89-6.68,3.27-7.8,4.48.18-2.1.26-4.23.33-6.46.03-.91.08-1.7.16-2.4.21-.56,4.23-3.36,4.49-3.55h.02c-2.1.85-3.25,1.52-4.35,2.4.23-1.47.67-4.36.28-5.95"/>
    <path class="cls-4" d="M293.61,169.43c-1.71-5.29-12.49-4.12-4.8,4.71,1.2,1.37-.34,3.76-2.92,3.39-3.89-.56-3.07,8.22,6.81,6.78,3.47-.51,4.42,4.41-1.68,4.88-9.59.74.7,14.37,7.67,6.28,1.26-1.47,7.28-2.63.45,4.28-1.52,1.54.81,8.62,6.01,6.11,3.04-1.47,6.47-2.64,9.63-1.26,4.14,1.8.31,2.21,3.16-6,1.22-3.52,7.8-13.58.54-15.1-2.48-.52-8.79,7.95-7.47-.43.52-3.34,3.81-8.9-1.7-12.86-3.86-2.77-9.49,16.86-6.92,1.3.89-5.39-3.97-9.76-5.91-2.41-.32,1.19-1.99,2.99-2.85.34"/>
    <path class="cls-3" d="M293.61,169.43c-1.71-5.29-12.49-4.12-4.8,4.71,1.2,1.37-.34,3.76-2.92,3.39-3.89-.56-3.07,8.22,6.81,6.78,3.47-.51,4.42,4.41-1.68,4.88-9.59.74.7,14.37,7.67,6.28,1.26-1.47,7.28-2.63.45,4.28-1.52,1.54.81,8.62,6.01,6.11,3.04-1.47,6.47-2.64,9.63-1.26,4.14,1.8.31,2.21,3.16-6,1.22-3.52,7.8-13.58.54-15.1-2.48-.52-8.79,7.95-7.47-.43.52-3.34,3.81-8.9-1.7-12.86-3.86-2.77-9.49,16.86-6.92,1.3.89-5.39-3.97-9.76-5.91-2.41-.32,1.19-1.99,2.99-2.85.34Z"/>
    <path class="cls-5" d="M292.68,174.65c.96,1.17,1.65,2.14,2.3,3.05.24.34.48.67.72,1-.59.27-2,.03-3.24,1.15.73-.24,1.42-.34,2.12-.31.66.02,1.34.16,2.07.41.67.84,1.47,1.74,2.56,2.82,1.62,1.6,3.15,3.14,4.6,4.71-1.6-.06-6.32,1.68-8.64,4.86.37-.22.76-.46,1.19-.73,2.43-1.52,6.19-3.87,8.51-2.95.67.76,1.31,1.52,1.93,2.31,1.66,2.11,3.16,4.36,4.46,6.94-1.23-.15-4.23-.6-6.24,1.97l.18-.11c2.89-1.28,3.28-1.23,6.46-.83h.11c.87,1.86,2.13,3.94,3.55,5.87.18.04.37.09.55.16.34.11.62.11.86.05-1.68-1.98-3.18-4.25-4.23-6.47.13-.3.23-.68.35-1.15.42-1.61,1.12-4.33,4.24-7.71-2.53.71-4.75,6.14-5.16,7.71-1.33-2.61-2.85-4.9-4.54-7.04-.62-.78-1.26-1.55-1.92-2.3-.25-2.97.28-4.55,1.13-7.1.22-.67.47-1.41.74-2.28-1.89,2.73-2.83,6.74-2.78,8.37-1.52-1.67-3.14-3.29-4.85-4.98-.7-.69-1.27-1.31-1.77-1.88-.27-.55.76-5.22.83-5.53v-.02c-1.02,2-1.41,3.24-1.61,4.6-.98-1.23-2.9-3.65-4.49-4.57"/>
    <path class="cls-4" d="M327.74,243.43c5.02-2.3,1.92-11.43-5.61-3.43-1.17,1.25-3.84.29-3.93-2.01-.14-3.45-8.83-1.39-5.61,6.93,1.13,2.92-3.65,4.5-5.21-.71-2.46-8.18-14.35,2.82-4.95,7.6,1.7.87,3.96,5.89-4.23,1.04-1.82-1.08-8.54,2.03-5.08,6.13,2.02,2.4,3.82,5.19,2.99,8.13-1.08,3.86-2.17.61,6.61,1.81,3.76.52,15.08,4.65,15.31-1.85.08-2.23-9.58-6.38-.9-6.53,3.46-.06,9.65,1.93,12.65-3.45,2.1-3.76-18.69-5.62-2.54-5.78,5.59-.06,9.12-4.93,1.37-5.49-1.25-.09-3.37-1.26-.85-2.41"/>
    <path class="cls-2" d="M327.74,243.43c5.02-2.3,1.92-11.43-5.61-3.43-1.17,1.25-3.84.29-3.93-2.01-.14-3.45-8.83-1.39-5.61,6.93,1.13,2.92-3.65,4.5-5.21-.71-2.46-8.18-14.35,2.82-4.95,7.6,1.7.87,3.96,5.89-4.23,1.04-1.82-1.08-8.54,2.03-5.08,6.13,2.02,2.4,3.82,5.19,2.99,8.13-1.08,3.86-2.17.61,6.61,1.81,3.76.52,15.08,4.65,15.31-1.85.08-2.23-9.58-6.38-.9-6.53,3.46-.06,9.65,1.93,12.65-3.45,2.1-3.76-18.69-5.62-2.54-5.78,5.59-.06,9.12-4.93,1.37-5.49-1.25-.09-3.37-1.26-.85-2.41Z"/>
    <path class="cls-5" d="M322.32,243.42c-1.01,1.01-1.86,1.75-2.66,2.46-.3.26-.59.52-.88.78-.38-.47-.39-1.73-1.74-2.62.37.6.6,1.18.69,1.78.1.58.08,1.19-.04,1.86-.73.71-1.49,1.54-2.38,2.65-1.32,1.64-2.6,3.21-3.92,4.7-.23-1.39-2.82-5.21-6.44-6.73.28.29.6.59.95.92,1.96,1.87,5.01,4.76,4.49,6.91-.64.69-1.3,1.37-1.98,2.02-1.82,1.76-3.83,3.4-6.19,4.93-.07-1.08-.15-3.75-3.1-5.09l.14.14c1.81,2.3,1.83,2.64,1.99,5.46v.1c-1.7,1.04-3.57,2.44-5.26,3.97,0,.16-.03.33-.06.5-.05.31,0,.56.11.75,1.7-1.76,3.71-3.41,5.76-4.65.33.07.73.09,1.22.12,1.7.11,4.57.3,8.53,2.48-1.17-2.08-7.04-3.16-8.69-3.28,2.39-1.55,4.42-3.22,6.28-5.01.68-.65,1.33-1.32,1.97-2.01,2.95-.67,4.64-.46,7.35-.11.72.09,1.5.19,2.43.29-3.09-1.21-7.3-1.41-8.93-1.11,1.41-1.57,2.76-3.22,4.15-4.96.57-.71,1.09-1.3,1.58-1.82.5-.32,5.4-.15,5.72-.13h.02c-2.2-.58-3.52-.72-4.93-.69,1.06-1.03,3.16-3.07,3.8-4.59"/>
    <path class="cls-4" d="M316.04,120.2c-7.15,1.18.38,8.46-2.81,13.4-1.87,2.89-5.69.37,1.92,10.71,4.23,5.75-3.92,2.81-6.5,7.18-1.08,1.82,2.14,7.64,4.46,9.35,4.14,3.07,7.24,1.34,9.83,4.06,3.1,3.26-4.64,1.86-5.44,2.38-2.12,1.38-.99,5.5,1.37,6.48,5.33-1.68,4.53.74.56,2.39-1.49.56-.2,6.1,5.08,2.36,2.94-2.77,10.62.33-.88,4.52-.26,7.96,12.5,5.95,13.91,7.59,2.56,2.99-6.29-.23.88,6.77,1.82,1.78,5.2,3.88,7.35,5.02,3.93,2.1,11.88-16.95,3.25-17.07-3.26-.05,2.04-10.59,2.55-13.58,2.51-14.52-6.05-7.12-6.12-7.14-.81-3.73,3.03-6.14,1.05-9.66-4.12-4.79-5,7.52-7.01,3.99-1.08-2.49,2.63-10.73,2.99-17.15.27-4.71-1.11-8.4-4.86-5.95-3.67,2.39-10.15,6.83-7.94-3.37.42-1.95-1.16-4.37-4.04-1.88-4.49,3.88-4.56-6.17-7.62-9.85-.52-.62-.96-.73-1.99-.56"/>
    <path class="cls-3" d="M316.04,120.2c-7.15,1.18.38,8.46-2.81,13.4-1.87,2.89-5.69.37,1.92,10.71,4.23,5.75-3.92,2.81-6.5,7.18-1.08,1.82,2.14,7.64,4.46,9.35,4.14,3.07,7.24,1.34,9.83,4.06,3.1,3.26-4.64,1.86-5.44,2.38-2.12,1.38-.99,5.5,1.37,6.48,5.33-1.68,4.53.74.56,2.39-1.49.56-.2,6.1,5.08,2.36,2.94-2.77,10.62.33-.88,4.52-.26,7.96,12.5,5.95,13.91,7.59,2.56,2.99-6.29-.23.88,6.77,1.82,1.78,5.2,3.88,7.35,5.02,3.93,2.1,11.88-16.95,3.25-17.07-3.26-.05,2.04-10.59,2.55-13.58,2.51-14.52-6.05-7.12-6.12-7.14-.81-3.73,3.03-6.14,1.05-9.66-4.12-4.79-5,7.52-7.01,3.99-1.08-2.49,2.63-10.73,2.99-17.15.27-4.71-1.11-8.4-4.86-5.95-3.67,2.39-10.15,6.83-7.94-3.37.42-1.95-1.16-4.37-4.04-1.88-4.49,3.88-4.56-6.17-7.62-9.85-.52-.62-.96-.73-1.99-.56Z"/>
    <path class="cls-5" d="M318.04,131.2c1.49,4.24,3.25,8.59,5.14,13-2.08-2.11-4.01-3.11-5.73-4.64,0,0,3.26,3.73,5.25,5.73.4.4,1.04,1,1.54,1.47,1.81,4.12,3.71,8.16,5.64,12.37.64,1.39,1.27,2.78,1.91,4.18-.75-.32-1.7-.72-2.74-1.15-2.16-.9-11.79-6.84-12.64-7.68,1.18,2.32,8.21,7.18,12.46,8.95,1.6.66,2.97,1.23,3.7,1.59,3.14,6.92,6.2,13.89,8.76,20.77-1.66-.88-6.58-2.39-10.16-1.59.87.25,1.81.43,2.81.63,2.47.48,5.32,1.04,7.99,2.72,3.15,8.73,5.07,13.59,5.67,21.78l1.99-.06c-.63-8.63-3.18-14.04-6.53-23.19.05-1.86-.37-1.6.96-3.48,1.34-1.9,1.56-4.38,2.15-6.58.2-.77.91-4.7,1.23-4.87-.8.42-1.24,2.05-1.77,4.07-.56,2.1-1.24,4.67-2.45,6.4-.55.78-1.25,1.08-1.56,2.06-2.91-7.67-6.16-14.78-9.66-22.45h.03c-.32-1.33.44-3.14,1.29-5.15,1.05-2.51,1.93-7.13,1.53-10.21-.31,2.12-1.28,6.54-2.5,9.45-.56,1.33-1.09,2.58-1.33,3.77l-.22-.48c-1.87-4.08-4.67-8.05-4.44-12.36.15-2.9.12-8,.12-8-.77,3.16-1.08,6.04-1.21,8.12-1.15-2.61-4.74-10.85-7.22-15.17"/>
    <path class="cls-4" d="M332.67,197.72c1.12-7.37-11.23-11.96-7.86,3.04.52,2.33-2.48,4.37-5.08,2.48-3.91-2.84-7.97,8.26,3.57,12.01,4.05,1.32,2.32,7.81-4.57,4.98-10.82-4.45-7.33,17.82,4.79,11.89,2.2-1.07,9.39.87-1.93,5.44-2.51,1.01-3.98,10.9,3.07,10.76,4.13-.08,8.51.41,11.16,3.84,3.47,4.49-.91,2.85,6.8-5.51,3.31-3.59,16.11-12.12,9.1-18.01-2.4-2.01-14.01,4.74-7.87-4.69,2.45-3.76,9.15-8.66,5.4-16.54-2.62-5.51-19.8,15.15-8.24-2.28,4-6.03,1.19-14.04-5.06-6.22-1.01,1.27-3.84,2.51-3.28-1.18"/>
    <path class="cls-3" d="M332.67,197.72c1.12-7.37-11.23-11.96-7.86,3.04.52,2.33-2.48,4.37-5.08,2.48-3.91-2.84-7.97,8.26,3.57,12.01,4.05,1.32,2.32,7.81-4.57,4.98-10.82-4.45-7.33,17.82,4.79,11.89,2.2-1.07,9.39.87-1.93,5.44-2.51,1.01-3.98,10.9,3.07,10.76,4.13-.08,8.51.41,11.16,3.84,3.47,4.49-.91,2.85,6.8-5.51,3.31-3.59,16.11-12.12,9.1-18.01-2.4-2.01-14.01,4.74-7.87-4.69,2.45-3.76,9.15-8.66,5.4-16.54-2.62-5.51-19.8,15.15-8.24-2.28,4-6.03,1.19-14.04-5.06-6.22-1.01,1.27-3.84,2.51-3.28-1.18Z"/>
    <path class="cls-5" d="M328.73,203.52c.39,1.96.58,3.51.77,4.98.07.54.14,1.08.22,1.62-.79,0-2.19-1.08-4.16-.41.93.12,1.73.38,2.47.8.71.4,1.36.95,2.02,1.65.26,1.39.61,2.93,1.19,4.84.86,2.84,1.66,5.56,2.34,8.27-1.7-.96-7.8-1.49-12.11,1.08.53-.06,1.09-.13,1.71-.22,3.49-.49,8.9-1.24,10.89,1.17.3,1.29.56,2.57.79,3.87.62,3.48.97,7.05.93,10.9-1.24-.87-4.25-3.08-7.88-1.09l.25-.04c3.85.06,4.25.33,7.48,2.6l.11.08c-.19,5.5-.84,7.16,1.03,11.89l1.66-.38c-1.8-4.56-1.85-6.29-1.67-11.6.31-.3.63-.71,1.03-1.2,1.36-1.72,3.65-4.63,8.95-6.99-3.15-.55-8.61,4.8-9.94,6.47.02-3.9-.34-7.53-.96-11.07-.23-1.29-.49-2.57-.78-3.85,1.4-3.73,2.87-5.36,5.22-7.97.62-.69,1.3-1.44,2.09-2.36-3.59,2.26-6.86,6.6-7.73,8.6-.71-2.87-1.55-5.75-2.46-8.74-.37-1.23-.65-2.29-.86-3.27.02-.82,3.77-5.91,4.01-6.24l.02-.03c-2.24,1.85-3.36,3.14-4.35,4.68-.37-2.04-1.09-6.05-2.29-8.05"/>
    <path class="cls-4" d="M284.25,197.05c6.6.58,1.91,7.42,6.02,11.54,2.41,2.41,5.11-.04,1.14,9.48-2.2,5.29,4.19,2.21,7.62,5.86,1.43,1.52.14,6.81-1.45,8.46-2.83,2.94-6.02,1.63-7.57,4.17-1.86,3.05,4.58,1.33,5.42,1.74,2.23,1.08,2.33,4.75.51,5.75-5.13-1.13-3.79.94.14,2.13,1.46.4,1.79,5.32-3.85,2.39-3.32-2.23-9.26.96,1.97,3.9,2.33,6.94-9.42,5.99-10.22,7.51-1.46,2.78,5.47-.6,1.02,5.98-1.13,1.67-3.55,3.72-5.13,4.85-2.91,2.08-14.94-14.06-7.38-14.72,2.86-.25-4.6-9.13-5.84-11.71-6.05-12.54,3.43-6.61,3.49-6.63-.27-3.31-4.29-5.17-3.48-8.38,2.36-4.44,6.39,6.26,7.22,3.05.29-2.25-5.15-9.21-7.17-14.8-1.48-4.1-1.25-7.41,2.7-5.51,3.86,1.86,10.74,5.32,6.09-3.45-.89-1.67-.14-3.89,3.06-1.9,4.98,3.11,2.38-5.68,4.1-9.1.29-.58.65-.69,1.6-.61"/>
    <path class="cls-3" d="M284.25,197.05c6.6.58,1.91,7.42,6.02,11.54,2.41,2.41,5.11-.04,1.14,9.48-2.2,5.29,4.19,2.21,7.62,5.86,1.43,1.52.14,6.81-1.45,8.46-2.83,2.94-6.02,1.63-7.57,4.17-1.86,3.05,4.58,1.33,5.42,1.74,2.23,1.08,2.33,4.75.51,5.75-5.13-1.13-3.79.94.14,2.13,1.46.4,1.79,5.32-3.85,2.39-3.32-2.23-9.26.96,1.97,3.9,2.33,6.94-9.42,5.99-10.22,7.51-1.46,2.78,5.47-.6,1.02,5.98-1.13,1.67-3.55,3.72-5.13,4.85-2.91,2.08-14.94-14.06-7.38-14.72,2.86-.25-4.6-9.13-5.84-11.71-6.05-12.54,3.43-6.61,3.49-6.63-.27-3.31-4.29-5.17-3.48-8.38,2.36-4.44,6.39,6.26,7.22,3.05.29-2.25-5.15-9.21-7.17-14.8-1.48-4.1-1.25-7.41,2.7-5.51,3.86,1.86,10.74,5.32,6.09-3.45-.89-1.67-.14-3.89,3.06-1.9,4.98,3.11,2.38-5.68,4.1-9.1.29-.58.65-.69,1.6-.61Z"/>
    <path class="cls-5" d="M285.4,206.79c-.19,3.81-.58,7.72-1.08,11.69,1.27-1.97,2.7-2.97,3.81-4.42,0,0-1.88,3.47-3.1,5.34-.25.38-.65.94-.96,1.38-.5,3.72-1.11,7.37-1.68,11.17-.19,1.26-.38,2.51-.57,3.78.57-.33,1.3-.74,2.1-1.18,1.66-.92,8.56-6.73,9.09-7.52-.42,2.1-5.32,6.8-8.59,8.61-1.23.68-2.28,1.27-2.83,1.62-.93,6.25-1.77,12.53-2.21,18.71,1.23-.88,5.16-2.51,8.52-2.04-.7.27-1.48.49-2.31.73-2.04.58-4.41,1.25-6.31,2.89-.46,7.84-.86,12.2.78,19.4l-1.77.07c-1.73-7.59-.92-12.48-.4-20.69-.53-1.62-.1-1.42-1.76-2.99-1.68-1.58-2.54-3.73-3.63-5.61-.38-.66-2.04-4.05-2.37-4.18.82.31,1.63,1.72,2.64,3.45,1.05,1.81,2.32,4,3.85,5.44.69.65,1.38.86,1.92,1.71.53-6.89,1.5-13.31,2.55-20.24h-.02c-.07-1.18-1.22-2.71-2.49-4.42-1.59-2.13-3.59-6.11-4.05-8.82.83,1.84,2.85,5.63,4.7,8.1.85,1.13,1.64,2.19,2.16,3.21l.07-.43c.56-3.69,1.97-7.34.63-11.09-.9-2.53-2.22-6.99-2.22-6.99,1.51,2.71,2.55,5.22,3.21,7.02.32-2.36,1.29-9.78,2.33-13.72"/>
    <path class="cls-4" d="M323.73,271.03c3.24-1.08,2.2-11.31-3.07-4.97-.82.99-2.35-.69-2.19-3.08.23-3.6-5.2-3.7-4.02,5.71.42,3.31-2.61,3.71-3.08-2.06-.74-9.08-8.92-.77-3.68,6.58.95,1.33,1.85,7.1-2.65,0-1-1.58-5.34-.1-3.63,5.03,1,3,1.83,6.33,1.06,9.16-1,3.7-1.36.07,3.82,3.56,2.22,1.5,8.68,8.67,9.41,2.01.25-2.28-5.2-9.04.05-6.97,2.09.82,5.65,4.46,7.95-.32,1.61-3.35-10.77-10.59-1.01-6.62,3.38,1.37,5.95-2.75,1.33-5.31-.75-.41-1.92-2.17-.29-2.71"/>
    <path class="cls-3" d="M323.73,271.03c3.24-1.08,2.2-11.31-3.07-4.97-.82.99-2.35-.69-2.19-3.08.23-3.6-5.2-3.7-4.02,5.71.42,3.31-2.61,3.71-3.08-2.06-.74-9.08-8.92-.77-3.68,6.58.95,1.33,1.85,7.1-2.65,0-1-1.58-5.34-.1-3.63,5.03,1,3,1.83,6.33,1.06,9.16-1,3.7-1.36.07,3.82,3.56,2.22,1.5,8.68,8.67,9.41,2.01.25-2.28-5.2-9.04.05-6.97,2.09.82,5.65,4.46,7.95-.32,1.61-3.35-10.77-10.59-1.01-6.62,3.38,1.37,5.95-2.75,1.33-5.31-.75-.41-1.92-2.17-.29-2.71Z"/>
    <path class="cls-5" d="M320.45,269.64c-.7.79-1.28,1.33-1.83,1.85-.2.19-.4.38-.6.58-.18-.58-.08-1.88-.81-3.16.17.71.25,1.37.26,2.02,0,.62-.06,1.24-.2,1.91-.5.55-1.04,1.2-1.68,2.12-.95,1.36-1.86,2.65-2.79,3.85,0-1.49-1.23-6.09-3.27-8.59.14.37.31.76.49,1.19,1.01,2.43,2.59,6.2,2.08,8.28-.45.55-.91,1.08-1.38,1.58-1.26,1.35-2.62,2.53-4.19,3.5.06-1.14.25-3.91-1.41-6.05l.07.18c.88,2.84.86,3.2.7,6.15v.1c-2.28,1.28-5.09,3.96-6.56,6.55l.98.26c1.42-2.5,3.66-4.85,5.85-6.08.19.15.43.28.73.44,1.01.55,2.73,1.48,4.92,4.75-.51-2.45-3.96-5.07-4.95-5.61,1.58-.99,2.96-2.19,4.25-3.56.47-.5.92-1.03,1.37-1.57,1.84.06,2.84.72,4.45,1.77.42.28.89.58,1.44.92-1.76-2.04-4.28-3.32-5.29-3.44.99-1.26,1.96-2.62,2.96-4.06.41-.59.77-1.07,1.12-1.47.33-.2,3.27,1.23,3.46,1.33h.02c-1.27-1.15-2.06-1.64-2.91-1.97.74-.79,2.19-2.36,2.71-3.76"/>
    <path class="cls-4" d="M236.62,297.38c2.88-1.85-.64-11.5-4.2-4.07-.55,1.16-2.44-.09-2.88-2.45-.66-3.54-5.95-2.31-2.5,6.53,1.21,3.1-1.62,4.24-3.5-1.24-2.94-8.62-8.84,1.44-1.96,7.28,1.25,1.06,3.53,6.43-2.57.64-1.35-1.28-5.2,1.22-2.28,5.76,1.71,2.66,3.33,5.69,3.28,8.62-.06,3.84-1.3.4,4.58,2.51,2.52.91,10.54,6.28,9.62-.36-.32-2.27-7.26-7.49-1.66-6.77,2.23.29,6.57,2.94,7.63-2.26.74-3.64-13.04-7.62-2.6-6.17,3.61.5,5.1-4.13-.01-5.47-.83-.22-2.39-1.63-.95-2.55"/>
    <path class="cls-3" d="M236.62,297.38c2.88-1.85-.64-11.5-4.2-4.07-.55,1.16-2.44-.09-2.88-2.45-.66-3.54-5.95-2.31-2.5,6.53,1.21,3.1-1.62,4.24-3.5-1.24-2.94-8.62-8.84,1.44-1.96,7.28,1.25,1.06,3.53,6.43-2.57.64-1.35-1.28-5.2,1.22-2.28,5.76,1.71,2.66,3.33,5.69,3.28,8.62-.06,3.84-1.3.4,4.58,2.51,2.52.91,10.54,6.28,9.62-.36-.32-2.27-7.26-7.49-1.66-6.77,2.23.29,6.57,2.94,7.63-2.26.74-3.64-13.04-7.62-2.6-6.17,3.61.5,5.1-4.13-.01-5.47-.83-.22-2.39-1.63-.95-2.55Z"/>
    <path class="cls-5" d="M233.1,296.83c-.49.94-.91,1.61-1.32,2.25-.15.24-.3.47-.44.71-.32-.52-.54-1.81-1.56-2.86.34.65.58,1.26.74,1.89.16.6.24,1.22.28,1.89-.35.65-.71,1.42-1.11,2.47-.58,1.55-1.15,3.02-1.76,4.41-.38-1.45-2.68-5.61-5.28-7.53.23.32.49.66.77,1.04,1.58,2.11,4.03,5.37,4.05,7.52-.3.64-.62,1.27-.95,1.87-.89,1.62-1.92,3.09-3.2,4.42-.22-1.12-.71-3.85-2.85-5.52l.12.15c1.55,2.53,1.62,2.89,2.19,5.79l.02.1c-1.89,1.8-3.96,5.09-4.75,7.96h1.02c.76-2.76,2.36-5.58,4.18-7.32.23.1.49.17.81.25,1.12.28,3.01.76,5.94,3.4-1.1-2.25-5.08-3.94-6.17-4.22,1.29-1.35,2.34-2.85,3.24-4.5.33-.6.65-1.22.95-1.86,1.8-.39,2.93,0,4.75.62.48.16,1,.34,1.62.54-2.2-1.55-4.96-2.17-5.97-2.04.65-1.47,1.26-3.02,1.87-4.66.25-.67.49-1.22.72-1.7.28-.28,3.48.39,3.68.44h.02c-1.52-.81-2.4-1.09-3.31-1.2.52-.95,1.54-2.83,1.71-4.31"/>
    <path class="cls-4" d="M301.52,283.37c5.66-1.88,5.92-18.2-4.19-7.82-1.57,1.61-3.81-1-3.08-4.83,1.1-5.76-8.02-5.68-7.88,9.33.05,5.27-5.12,6.06-4.78-3.16.54-14.49-14.85-.82-7.48,10.7,1.33,2.09,1.72,11.27-4.45.11-1.37-2.48-8.95.09-7.09,8.21,1.09,4.75,1.83,10.05-.01,14.61-2.41,5.97-2.3.18,5.73,5.52,3.45,2.29,12.89,13.47,15.43,2.78.87-3.66-6.97-14.22,1.45-11.16,3.36,1.22,8.61,6.88,13.43-.88,3.37-5.43-16.02-16.45-.39-10.55,5.41,2.04,10.55-4.68,3.28-8.56-1.18-.63-2.8-3.38.04-4.32"/>
    <path class="cls-3" d="M301.52,283.37c5.66-1.88,5.92-18.2-4.19-7.82-1.57,1.61-3.81-1-3.08-4.83,1.1-5.76-8.02-5.68-7.88,9.33.05,5.27-5.12,6.06-4.78-3.16.54-14.49-14.85-.82-7.48,10.7,1.33,2.09,1.72,11.27-4.45.11-1.37-2.48-8.95.09-7.09,8.21,1.09,4.75,1.83,10.05-.01,14.61-2.41,5.97-2.3.18,5.73,5.52,3.45,2.29,12.89,13.47,15.43,2.78.87-3.66-6.97-14.22,1.45-11.16,3.36,1.22,8.61,6.88,13.43-.88,3.37-5.43-16.02-16.45-.39-10.55,5.41,2.04,10.55-4.68,3.28-8.56-1.18-.63-2.8-3.38.04-4.32Z"/>
    <path class="cls-5" d="M296.29,281.29c-1.34,1.29-2.42,2.19-3.44,3.05-.38.32-.75.63-1.13.95-.19-.93.24-3.01-.74-5.01.14,1.13.15,2.17.03,3.22-.12.99-.35,1.99-.7,3.06-.95.9-1.99,1.98-3.24,3.47-1.86,2.22-3.65,4.32-5.45,6.28.28-2.39-.87-9.69-3.82-13.6.17.59.37,1.2.59,1.89,1.23,3.84,3.13,9.8,1.87,13.15-.87.9-1.74,1.76-2.63,2.59-2.39,2.22-4.9,4.17-7.73,5.79.32-1.82,1.19-6.26-1.18-9.62l.09.28c.92,4.5.82,5.08-.02,9.81l-.03.16c-2.01,1.06-4.32,2.68-6.49,4.56-.07.26-.15.54-.23.81-.16.49-.2.92-.17,1.29,2.26-2.27,4.79-4.22,7.21-5.5.29.23.67.43,1.13.67,1.6.83,4.3,2.24,7.34,7.38-.38-3.89-5.66-7.93-7.21-8.75,2.86-1.66,5.42-3.64,7.84-5.89.89-.83,1.76-1.68,2.62-2.58,3.08.02,4.63,1.02,7.13,2.62.66.42,1.38.89,2.24,1.41-2.55-3.19-6.54-5.12-8.21-5.26,1.92-2.07,3.81-4.29,5.77-6.63.8-.96,1.51-1.74,2.17-2.41.6-.33,5.26,1.82,5.56,1.96h.02c-1.91-1.79-3.13-2.53-4.51-3.02,1.39-1.3,4.14-3.88,5.3-6.14"/>
    <path class="cls-4" d="M266.24,263.18c4.04-4.04-1.31-17.74-6.13-4.68-.75,2.03-3.49.83-4.19-2.67-1.06-5.28-8.57-1.23-3.33,11.21,1.84,4.37-2.17,7.29-5.03-.54-4.49-12.3-12.55,5.81-2.54,12.17,1.81,1.16,5.26,8.64-3.64,2.04-1.98-1.46-7.37,3.99-3.05,9.94,2.53,3.48,4.94,7.57,4.98,12.17.04,6.03-1.85,1.15,6.62,2.09,3.63.4,15.25,5.59,13.7-4.42-.53-3.43-10.61-8.8-2.6-9.92,3.19-.45,9.47,1.97,10.8-6.6.93-5.99-18.85-6.7-3.92-8.61,5.17-.66,7.12-8.51-.21-8.56-1.19,0-3.46-1.59-1.44-3.61"/>
    <path class="cls-3" d="M266.24,263.18c4.04-4.04-1.31-17.74-6.13-4.68-.75,2.03-3.49.83-4.19-2.67-1.06-5.28-8.57-1.23-3.33,11.21,1.84,4.37-2.17,7.29-5.03-.54-4.49-12.3-12.55,5.81-2.54,12.17,1.81,1.16,5.26,8.64-3.64,2.04-1.98-1.46-7.37,3.99-3.05,9.94,2.53,3.48,4.94,7.57,4.98,12.17.04,6.03-1.85,1.15,6.62,2.09,3.63.4,15.25,5.59,13.7-4.42-.53-3.43-10.61-8.8-2.6-9.92,3.19-.45,9.47,1.97,10.8-6.6.93-5.99-18.85-6.7-3.92-8.61,5.17-.66,7.12-8.51-.21-8.56-1.19,0-3.46-1.59-1.44-3.61Z"/>
    <path class="cls-5" d="M261.21,263.73c-.66,1.66-1.25,2.88-1.8,4.04-.21.43-.41.85-.61,1.29-.48-.69-.83-2.61-2.32-3.85.5.88.87,1.74,1.12,2.66.24.88.39,1.81.46,2.85-.48,1.16-.97,2.51-1.49,4.31-.78,2.66-1.54,5.19-2.36,7.61-.59-2.11-4.02-7.7-7.79-9.66.34.41.72.84,1.13,1.31,2.32,2.66,5.93,6.79,6.03,10.14-.41,1.13-.83,2.23-1.29,3.31-1.22,2.89-2.63,5.61-4.41,8.2-.35-1.66-1.15-5.74-4.26-7.49l.17.19c2.3,3.34,2.41,3.87,3.33,8.18l.03.15c-2.63,3.57-5.46,9.54-6.49,14.36l1.45-.39c.99-4.64,3.17-9.7,5.7-13.15.32.07.7.07,1.17.06,1.6,0,4.32,0,8.58,2.93-1.64-3.07-7.38-4.13-8.95-4.13,1.8-2.63,3.23-5.4,4.47-8.33.45-1.07.88-2.17,1.28-3.29,2.55-1.33,4.18-1.18,6.79-.93.69.06,1.44.14,2.33.19-3.2-1.54-7.15-1.41-8.58-.79.88-2.56,1.68-5.23,2.51-8.04.34-1.15.66-2.11.97-2.96.38-.54,4.97-.78,5.27-.79h.02c-2.19-.66-3.46-.75-4.76-.56.71-1.69,2.1-5.04,2.29-7.43"/>
    <path class="cls-4" d="M281.45,311.67c-.68-8.21-5.69-1.13-8.95-5.61-1.91-2.62-.16-6.44-7.22.19-3.93,3.67-1.83-4.9-4.72-8.59-1.21-1.54-5.16,1-6.35,3.27-2.12,4.07-1.01,7.85-2.88,10.25-2.24,2.86-1.17-5.53-1.51-6.53-.9-2.63-3.68-2.12-4.37.34,1.05,6.27-.57,4.93-1.62.19-.35-1.77-4.1-1.34-1.67,5.25,1.81,3.8-.39,11.82-3.02-1.81-5.34-1.75-4.19,12.89-5.32,14.16-2.05,2.32.25-6.99-4.56-.26-1.22,1.71-2.69,5.11-3.49,7.29-1.47,4.02,11.19,16.4,11.41,6.77.08-3.64,7.08,4.23,9.08,5.35,9.71,5.47,4.88-5.45,4.89-5.53,2.52-.22,4.07,4.51,6.47,2.95,3.28-3.73-4.97-6.98-2.57-8.57,1.69-.75,7.17,4.91,11.47,6.49,3.16,1.17,5.66.3,4.07-4.34-1.55-4.54-4.42-12.61,2.39-8.26,1.3.83,2.95-.5,1.32-4.18-2.54-5.74,4.22-3.97,6.74-6.72.43-.46.5-.94.4-2.12"/>
    <path class="cls-3" d="M281.45,311.67c-.68-8.21-5.69-1.13-8.95-5.61-1.91-2.62-.16-6.44-7.22.19-3.93,3.67-1.83-4.9-4.72-8.59-1.21-1.54-5.16,1-6.35,3.27-2.12,4.07-1.01,7.85-2.88,10.25-2.24,2.86-1.17-5.53-1.51-6.53-.9-2.63-3.68-2.12-4.37.34,1.05,6.27-.57,4.93-1.62.19-.35-1.77-4.1-1.34-1.67,5.25,1.81,3.8-.39,11.82-3.02-1.81-5.34-1.75-4.19,12.89-5.32,14.16-2.05,2.32.25-6.99-4.56-.26-1.22,1.71-2.69,5.11-3.49,7.29-1.47,4.02,11.19,16.4,11.41,6.77.08-3.64,7.08,4.23,9.08,5.35,9.71,5.47,4.88-5.45,4.89-5.53,2.52-.22,4.07,4.51,6.47,2.95,3.28-3.73-4.97-6.98-2.57-8.57,1.69-.75,7.17,4.91,11.47,6.49,3.16,1.17,5.66.3,4.07-4.34-1.55-4.54-4.42-12.61,2.39-8.26,1.3.83,2.95-.5,1.32-4.18-2.54-5.74,4.22-3.97,6.74-6.72.43-.46.5-.94.4-2.12Z"/>
    <path class="cls-5" d="M274.04,311.89c-2.88.89-5.82,2.06-8.81,3.37,1.45-1.94,2.15-3.91,3.2-5.56,0,0-2.56,2.96-3.93,4.82-.28.38-.69.98-1.01,1.45-2.8,1.26-5.54,2.66-8.4,4.04-.94.46-1.89.91-2.84,1.37.23-.78.51-1.76.82-2.85.64-2.25,4.78-11.93,5.36-12.73-1.58.89-4.95,7.87-6.21,12.29-.47,1.67-.88,3.09-1.12,3.85-4.7,2.24-9.42,4.38-14.09,5.99.62-1.7,1.71-6.92,1.23-11.07-.18.92-.32,1.94-.47,3.03-.36,2.67-.79,5.76-1.95,8.44-5.91,1.92-9.21,3.17-14.71,2.34v2.24c5.82.88,9.49-.98,15.69-3.05,1.25.39,1.08-.12,2.32,1.71,1.26,1.84,2.91,2.55,4.38,3.61.51.37,3.14,1.88,3.25,2.27-.27-.97-1.36-1.76-2.71-2.73-1.4-1.01-3.11-2.24-4.26-3.92-.52-.76-.7-1.59-1.36-2.13,5.2-1.85,10.02-4.17,15.23-6.68v.03c.9-.11,2.1,1.07,3.44,2.38,1.67,1.64,4.76,3.47,6.83,3.59-1.42-.74-4.37-2.63-6.3-4.53-.89-.87-1.72-1.69-2.51-2.17l.32-.16c2.77-1.34,5.48-3.74,8.37-2.7,1.95.71,5.37,1.6,5.37,1.6-2.11-1.44-4.04-2.32-5.43-2.84,1.77-.8,7.36-3.31,10.3-5.29"/>
    <path class="cls-5" d="M85.69,155.12c-.5-.14-.97-.37-1.4-.71.95-.22,1.36.08,1.4.71"/>
    <path class="cls-5" d="M96.89,135.83s0,0,0,0c0,0,0,0,0,0"/>
    <path class="cls-4" d="M154.78,323.8c-2.54,1.78-4.84,3.04-6.91,3.78l-.17,1.51c.22-.13.34-.2.38-.22l1.66-.97c.67-.38,1.51-.92,2.54-1.65l-1.45,13.05h-2.86l-1.56,1.22h9.06l1.52-1.22h-3.93l1.72-15.51Z"/>
    <path class="cls-4" d="M167.79,336.21c-1.18,0-2.15-.47-2.92-1.42-.77-.95-1.15-2.15-1.15-3.59,0-1.23.39-2.27,1.18-3.12.79-.84,1.76-1.26,2.9-1.26,2.6,0,4.24,1.68,4.92,5.04-.89,2.9-2.54,4.35-4.93,4.35M169.3,325.5c-1.96,0-3.72.79-5.29,2.39-1.57,1.59-2.35,3.38-2.35,5.37,0,1.38.4,2.51,1.2,3.39.8.88,1.82,1.32,3.07,1.32,1.33,0,2.64-.42,3.92-1.26,1.29-.84,2.31-1.94,3.06-3.3l.02.53c0,1.38-.29,2.92-.87,4.63s-1.29,3.07-2.12,4.09c-1.37,1.7-3.08,2.54-5.13,2.54-1.35,0-2.64-.38-3.87-1.15l-2.08,2.01c1.24.37,2.46.55,3.66.55,3.28,0,6.23-1.44,8.86-4.33,2.63-2.88,3.94-6.12,3.94-9.72,0-2.06-.57-3.76-1.7-5.09-1.13-1.33-2.58-1.99-4.34-1.99"/>
    <path class="cls-4" d="M189.68,333.54c1.77-1.99,2.65-3.72,2.65-5.18,0-1.08-.49-2.03-1.46-2.85s-2.1-1.22-3.39-1.22-2.77.35-4.41,1.04-2.47,1.32-2.47,1.88c0,.06.05.21.14.42,1.43-1.12,2.9-1.68,4.43-1.68,1.27,0,2.31.37,3.14,1.1.83.73,1.24,1.66,1.24,2.78,0,1.93-.88,3.71-2.64,5.33-1.76,1.62-4.06,2.77-6.9,3.45l-1.95,1.92,12.52.41,1.84-1.85-9.21-.47c2.54-1.39,4.7-3.08,6.46-5.07"/>
    <path class="cls-4" d="M207.63,324.52c0,1.86-.89,3.27-2.68,4.22l-.69-.54c-2.39-1.86-3.59-3.39-3.59-4.6,0-.79.29-1.43.87-1.94.58-.5,1.33-.75,2.24-.75,1.13,0,2.06.34,2.77,1.01.71.67,1.07,1.54,1.07,2.6M207.67,336.01c0,.89-.36,1.66-1.07,2.32-.72.65-1.56.98-2.53.98-1.36,0-2.54-.45-3.55-1.35-1.01-.9-1.51-1.96-1.51-3.17,0-1.58,1.18-3.22,3.54-4.92l.58.45c3.04,2.45,4.56,4.35,4.56,5.69M200.99,321.43c-1.3,1.08-1.96,2.31-1.96,3.68,0,1.25.91,2.61,2.73,4.1l.33.28c-3.55,2.02-5.33,4.24-5.33,6.66,0,1.34.51,2.47,1.53,3.4,1.02.93,2.27,1.39,3.75,1.39,1.83,0,3.54-.69,5.14-2.08,1.59-1.39,2.39-2.88,2.39-4.49,0-1.35-1.25-2.98-3.74-4.88l-.36-.28.63-.44c2.51-1.76,3.76-3.46,3.76-5.11,0-1.12-.42-2.04-1.24-2.76-.83-.72-1.89-1.08-3.19-1.08-1.65,0-3.13.54-4.44,1.62"/>
    <path class="cls-4" d="M196.34,106.35c-.21-.21-4.69-2.35-5.29-2.57-5.31-1.96-10.78-2.13-16.32-1.02-.24,2.92,2.3,1.13,2.72,1.36.08.04-.54.92-.07,1.7.86,1.4,3.76,2.82,4,3.17.11.17-.42,3.14.15,3.97,2.27-2.41,3.86-.59,6.36-.71,3.32-.15,7.19-2.69,10.63-2.7-1.59-.66-1.97-2.99-2.19-3.21M174.86,109.45c-.16-.13.7-1.38-1.95-3.18-7.68-5.22-15.86-5.92-24.7-3.51.04,2.67,3.41,2.84,5.44,2.72l-.66,1.31c4.5,3.13,9.83,2.88,14.44,4.16.57.16.46,1.21.95,1.32.49.11,6.89.77,7.25.71.16-.02.99-1.87,2.48-1.72-.59-1.45-2.74-1.38-3.27-1.81M209.41,102.75c-4.53-3.91-11.48-2.83-17-1.35l5.66,3.56c2.97-.32,1.23.64,1.94,1.71.96,1.46,4.5-.68,6-.52l-2.03-1.35c2.8.48,3.06-2.35,5.43-2.06M196.44,93.97c-4.49-2.37-9.83-2.82-14.24-.05,2.56,4.86,1.23,6.99,7.52,5.81,3.54-.67,7.27-1.51,6.71-5.76M181.52,99.35c1.07-1.02-3.22-6.03-4.52-6.72-2.71-1.45-12.78-.17-15.67,1.15-2.48,1.14-3.22,3.65-5.65,3.54.12.94.92,1.17,1.74,1.32,4.07.74,8.74.97,12.88,1.4l-.34,1.35c3.73-1.33,7.54-2.4,11.56-2.04M153.99,91.87c-4.61-.76-13.22,0-18.36,0-.08,0-1.36.99-.69,1.37,2.38,1.41,7.51,8.18,10.09,8.03.38-.02,6.59-2.99,6.93-3.25.88-.67,4.33-4.55,3.72-5.46-.7.17-1.33-.63-1.7-.69M220.05,91.44c-5.77-2.44-14.46-.77-19.4,2.92-.3.22-2.79,2.39-2.13,2.94,5.53.21,10.06,1.64,14.96,4.09l.05-2c3.09.34,5.54-4.75,8.11-6.52-.78-.17-1.36-1.34-1.59-1.44M189.01,89.14v-20.08c0-1.48-3.02-2.9-3.69-3.79-2.08-2.81-1.07-6.82-6.85-6.82s-4.71,3.99-6.67,6.66c-.62.84-4.55,2.91-4.55,4.63v20.08c2.92.43.2-4.09,2.01-5.79,2.43-.4,5.47-.67,2.75,2.38,3.26-.24,2.16-4.1,2.04-6.12h-2.03s1.36,1.03,1.36,1.03c.02,2.25-3.26,1.7-4.77,1.7v-9.53l4.43.68-1.02,1.71c2.56,1.49,2.63-5.18,2.03-5.79-2.27-.58-.46,1.19-1.29,1.7-1.01.62-4.25,1.4-4.03-.54.45-4.01,3.37-3.31,4.3-4.56,1.34-1.8.02-6.69,5.1-6.11l-.7,28.91,1.39,1.03v-29.6l1.38-.72c3.92.93,2.82,6.33,3.46,7.1.57.68,5.2.06,3.99,4.85h-4.08s.68-2.03.68-2.03c-4.04-.26-1.95,7.7,0,6.11l-.68-2.71h4.08s0,9.52,0,9.52h-4.08s-.34-2.72-.34-2.72c-1.8,1.53-2.08,5.39.66,6.13l-.33-2.73h4.08c.22.21-.58,8.02,1.36,5.44M179.79,52.11c-.49-.56-.8-1.22-1.32-1.75l-3.05,3.05,2.05,1.92,1.6.46c1.5-2.08,2.74-1.34.72-3.68M164.53,90.5c.83,1.11,1.23,0,1.36-1.01.96-7.5-2.51-18.06,2.72-23.83l-2.71.34c-.38-4.71,3.22-9.21,6.46-12.26.46-.44,1.4-.09,2-.67,1.28-1.23,1.32-3.78,3.58-3.97,3.06-.26,3.06,3.36,4.42,4.46.18.15,1.02-.33,1.57.14,1.64,1.41,7.83,10.46,6.45,12.31l-2.03-.34c4.66,6.58.88,16.34,2.04,24.16,1.19.16.64-1.55.67-2.37.25-6.04.06-12.08,1.03-18.05,1.84.14,1.24.83,1.25,1.88.1,6.17-.43,12.35-.24,18.54,2.01,2.65,1.11-5.88,1.35-6.12l28.21.02,2.07,2.16c1.78,1.85,1.91,4.71.37,6.76-18.84,24.95-56.37,29.88-82.14,11.64-3.79-2.68-10.7-9.56-13.01-13.54-1.33-2.29,1.41-4.77,3.34-5.99,3.57-2.25,5.71-.41,9.12-.34,2.9.06,18.27-.61,19.11.61,1.15,1.6-1.17,6.61,1.66,6.17v-20.42h1.35c.88,1.3,0,2.45,0,3.06v16.67Z"/>
    <path class="cls-4" d="M209.4,49.68h-5.43l.71,4.04h4l.72-4.04ZM198.53,50.35l-3.34.06c-.55,4.59-.21,8.94-.05,13.55l3.39-1.36v-12.25ZM157.73,50.69v10.89l3.4,1.7c-.54-2.6,2.47-13.61-1.7-13.63-.63,0-1.55.51-1.7,1.05M152.25,53.72l.38-4.05-4.43-.35v4.43s4.05-.03,4.05-.03ZM220.97,44.9c-11.46,1.86-23.1,1.29-34.68,1.37l3.74,5.44c-.9-3.93,2.75-5.09,3.75-1.36,1.21-.3.44-1.68,2.45-1.82,2.87-.21,3.1,1.82,3.32,1.83l.34-2.06c7.13,1.32,13.94-1.23,21.08-.68l-.11,3.3-26.02,14.36c-1-.22-1.7-4.53-2.31-5.86-3.07-6.72-7.84-12.93-14.07-17.01-7.82,4.72-16.1,13.19-15.98,22.92-.98.15-1.76-.05-2.68-.38-7.37-2.64-16.07-10.57-23.42-13.99l-1.1-3.32,21.08.67.35,2.05c1.65-3.31,3.46-1.34,5.45-.68.21.07.82-2.53,3.73-1.37l.34,2.73,3.06-4.07-36.04-1.37c-1.1-.88.08-1.24,1.01-1.36,4.98-.64,10.23.6,14.94.71,5.32.12,18.73.8,23.13-.39,2.23-.6,3.68-3.42,6.15-3.71,1.49.04,3.67,3.61,6.17,4.06,1.47.26,4.75-.66,6.69-.68,7.49-.08,15.02.25,22.51.05,2.3-.06,5.73-2.06,7.11.64"/>
    <path class="cls-4" d="M179.49,34.7v-14.63c0-1.28-3.4-1.28-3.4,0v14.63h3.4ZM184.25,27.21c-1.25,1.69-.31,2.02-.66,3.64-.18.81-1.67-.01-1.38,1.11h3.4s0,3.41,0,3.41h-2.73s0,6.8,0,6.8c-3.7-3.98-5.57-3.13-9.51,0l-.3-6.17-3.12-.98.79-2.95,3.3-.11-2.1-2.38,1.42-3.05h-3.4s0-4.09,0-4.09h2.73s-.68-4.08-.68-4.08h2.28s1.11,1.36,1.11,1.36l.69-2.03h-9.51s4.76.67,4.76.67v3.41h-5.44s2.75.99,2.75.99l.69,2.07c.05,2.5-3.04.85-3.44,2.38l4.79.31c2.34,4.09-1.62,4.06-4.79,3.78l3.4.67-.64,3.79-4.12.3v-11.91c0-2.6.01-5.32,2.04-7.14-1.59.09-3.6.07-3.4-2.05l29.91-.68-.66,2.39c-5.22.8-10.38.7-15.65.33.06,1.32,2,.35,3.13,1.28.77.63.92,1.85.95,2.8l.68-2.72h2.03s-.68,4.08-.68,4.08h2.73c.55,3.21-.11,3.07-1.37,4.77l5.45-.34c-.01-.75-3.46.85-3.39-2.76.05-2.54,2.96-.76,3.38-2.34h-5.44s.08-3.34.08-3.34l6.72-.75v17.69h-4.08s0-3.41,0-3.41l2.72-.67h-5.44s0-4.09,0-4.09Z"/>
    <path class="cls-4" d="M146.71,24.62c-.62-.91-3.72-.37-4.32.52l-.31,8.88h4.77c-.5-2.38,1.17-7.47-.13-9.4M153.65,34.7l-5.43.69v7.48s-6.37-.1-6.37-.1l-1.02-1.02-.39-6.41-3.79-.64.69-11.57h3.68s.42,1.35.42,1.35c2.11-1.86,4.31-1.86,6.46.01.57-2.33,4.48-1.78,5.77-.34v10.55Z"/>
    <path class="cls-4" d="M212.65,23.97c-.91-.9-4.05-.65-4.5.98l-.11,9.08,5.15-.64c.73-1.05.34-8.55-.54-9.42M202.61,22.45h4.42s-.33,2.04-.33,2.04c2.08-2.77,4.54-3.62,7.14-.68.6-2.39,3.05-1.11,5.1-1.36v12.25l-3.79.64-.93,7.23-6.85.3-.77-8.07-3.99-.1v-12.25Z"/>
  </g>
  <polygon class="cls-4" points="222.33 57.16 222.33 83.02 216.2 83.02 216.2 76.89 220.96 76.22 212.11 75.15 212.12 70.77 220.97 70.43 216.2 69.7 216.2 63.96 220.96 63.29 212.13 62.95 222.33 57.16"/>
  <g class="cls-12">
    <path class="cls-4" d="M143.45,61.24c-3.42-2.98-7.65-4.6-10.87-7.83l2.02-1.71.04,1.99,4.05.05v2.73s4.03.07,4.03.07l.07,1.9,3.29.16.7,2.33,3.41.38.09,1.87c2.96-1.04,3.97,2.02,4.52,2.15.82.19,2.37-.34,2.83.07.27.24-.02,1.8.73,2.33,1.3.91,3.02-.81,3.43,3.02-6.39-2.76-12.06-6.49-18.36-9.52.68.59,1.85,1.33,2.04,2.04h-10.19c.54,1.58,3.51.08,4.8.98,1.2.83.47,4.35.64,5.83l-4.76.67h8.16s0,5.45,0,5.45h-8.15s4.76.68,4.76.68v6.13h-6.12v-25.86c3.01,1.13,5.94,2.69,8.84,4.08"/>
    <path class="cls-4" d="M185.35,52.64c-1.38-1.79-5.74-6.86-7.86-6.04-4.66,1.8-13.06,13.17-12.28,18.73h-2.03c-2.96-2.85,10.62-20.91,15.31-21.09,5.57,3.82,10.81,10.2,13.25,16.65.15.39,1.99,4.53.33,4.42-.77-.05-2.08-4.95-2.69-6.14-.99-1.93-2.72-4.84-4.03-6.53"/>
    <path class="cls-4" d="M223.68,51.04l.6,2.93c-.25,1.06-16.06,10.12-18.49,11.48-1.05.59-10.26,5.77-10.65,5.33l.42-2.09,2.21-.04c.06-3.29,2.18-2.72,4.85-2.63v-2.74c3.06.5,4.42-1.95,7.8-2l.29-1.76,3.38-.41c.17-4.57,4.39-.59,4.8-5.05l3.46-.29c.16-1.36-.81-3.19,1.35-2.73"/>
  </g>
  <polygon class="cls-4" points="149.56 36.06 156.75 36.7 156.41 43.93 149.86 43.59 149.56 36.06"/>
  <g class="cls-10">
    <path class="cls-4" d="M191.05,36.06v7.49h-7.49c.25-1.68-.65-6.3.64-7.19l6.85-.3Z"/>
    <path class="cls-4" d="M161.47,13.6c-.28-.04-1.95-.67-1.7-1.35,12.05.12,24.06,0,36.03-.68l-1.7,2.04c-10.12-1.02-22.86,1.37-32.64,0"/>
    <path class="cls-4" d="M172,36.06v7.49s-6.84-.3-6.84-.3c-1.25-.87-.42-4.93-.64-6.51l7.48-.67Z"/>
  </g>
  <polygon class="cls-4" points="139.24 36.19 139.76 42.91 134 43.47 133.93 35.38 139.24 36.19"/>
  <g class="cls-11">
    <path class="cls-4" d="M206.01,36.06l-.3,6.85c-7.98,2.48-6.16-.87-5.83-6.85h6.13Z"/>
  </g>
  <polygon class="cls-4" points="147.45 76.97 147.91 82.38 141.4 83.02 142.04 77.19 147.45 76.97"/>
  <rect class="cls-4" x="148.88" y="76.89" width="6.13" height="6.13"/>
  <g class="cls-17">
    <path class="cls-4" d="M175.41,5.43v6.13c-1.48-.17-5,.56-5.83-.64l-.3-5.49h6.13Z"/>
    <path class="cls-4" d="M207.97,82.26c-4.76,1.76-7.23.59-6.43-4.73l5.88-.34.56,5.07Z"/>
    <path class="cls-4" d="M211.35,70.87l.1,5.35h-6.13c-.58-5.62.29-7.58,6.03-5.35"/>
    <path class="cls-4" d="M215.54,69.39h-6.8s.09-4.65.09-4.65c1.87-.81,4.08-1.19,6.07-.48l.65,5.13Z"/>
  </g>
  <polygon class="cls-4" points="220.97 35.38 220.97 42.87 216.17 42.55 216.3 36.15 220.97 35.38"/>
  <g class="cls-14">
    <path class="cls-4" d="M190.36,10.88c-1.83-7.87,8.27-8.97,5.82-.64l-5.82.64Z"/>
  </g>
  <polygon class="cls-4" points="147.45 64.04 147.42 69.31 142.06 69.8 141.7 64.6 147.45 64.04"/>
  <g class="cls-13">
    <path class="cls-4" d="M186.29,5.43l.68,5.44c-6.53,1.45-7.4,1.32-6.12-5.43h5.44Z"/>
    <path class="cls-4" d="M214.85,76.89v6.13s-6.12-.69-6.12-.69c.09-1.36-.49-4.36.63-5.14l5.49-.3Z"/>
  </g>
  <polygon class="cls-4" points="204.65 70.77 204.01 75.92 198.13 75.55 198.53 70.78 204.65 70.77"/>
  <rect class="cls-4" x="145.48" y="70.77" width="6.13" height="5.45"/>
  <rect class="cls-4" x="152.28" y="70.77" width="6.13" height="5.45"/>
  <g class="cls-16">
    <path class="cls-4" d="M159.86,10.78l-.1-5.35,4.81.3c2.03,4.6.15,7.39-4.71,5.05"/>
    <path class="cls-4" d="M161.8,77.58l-.03,4.72-5.45.4c-.7-.42-.42-4.88.08-5.8l5.41.68Z"/>
  </g>
  <rect class="cls-4" x="194.44" y="77.57" width="6.13" height="4.77"/>
  <g class="cls-15">
    <path class="cls-4" d="M220.29,19.73c.05.44-.9,1.36-1.02,1.36h-17c-.12,0-1.07-.92-1.02-1.36h19.04Z"/>
  </g>
  <polygon class="cls-4" points="213.45 15 213.49 19.05 208.04 19.05 208.69 14.57 213.45 15"/>
  <g class="cls-7">
    <path class="cls-4" d="M155,21.1c.11,1.01-1.81,1.25-2.48,1.31-4.28.39-11.01-.34-15.55-.63-1.36-.09-1.96.54-1.69-1.36l19.71.68Z"/>
  </g>
  <rect class="cls-4" x="142.08" y="15.64" width="5.45" height="4.09"/>
  <polygon class="cls-4" points="155.01 19.73 150.24 19.73 150.34 15.75 154.37 15.25 155.01 19.73"/>
  <g class="cls-6">
    <path class="cls-4" d="M155.69,69.4h-6.8s0-4.07,0-4.07c.41-.45,6.32,2.95,6.8,4.07"/>
  </g>
  <polygon class="cls-4" points="208.05 69.41 201.25 69.07 208.04 65.32 208.05 69.41"/>
  <rect class="cls-4" x="200.56" y="14.96" width="3.41" height="4.09"/>
  <polygon class="cls-4" points="138.69 15.64 138.68 19.73 135.92 19.43 135.28 15.65 138.69 15.64"/>
  <polygon class="cls-4" points="220.28 14.28 220.29 18.37 216.88 18.37 217.19 14.92 220.28 14.28"/>
  <g class="cls-8">
    <path class="cls-4" d="M120.3,226.85l-3.92-10.25c4.94-1.89,7.25-1.88,9.61,3.46l1.01-.38-5.52-14.46-1.01.38c1.81,5.55.09,7.1-4.85,8.99l-4.97-13,5.31-2.03c4.76-1.82,8.04-.66,10.35,4.02l1.01-.39-3.43-8.97-28.29,10.8.39,1.01c3.16-1.21,4.69-.9,6.04,2.62l8.39,21.97c1.35,3.52.41,4.77-2.75,5.98l.38,1.01,18.68-7.13-.38-1.01c-3.16,1.21-4.69.9-6.04-2.62"/>
    <path class="cls-4" d="M139.49,190.57c5.49-2.1,7.97-1.37,10.16,4.35,2.12,5.54.21,7.42-4.92,9.38l-5.24-13.73ZM155.17,218.46c-3.16,1.21-4.69.9-6.04-2.62l-3.63-9.52,1.01-.39,13.95,11.67,12.04-4.6-.38-1.01c-2.23.75-3.25.14-5.07-1.32l-11.1-9.03c3.3-3.04,4.91-6.23,3.22-10.67-2.25-5.9-7.62-7.32-16.13-4.07l-18.58,7.1.38,1.01c3.16-1.21,4.69-.9,6.04,2.62l8.39,21.97c1.35,3.52.41,4.77-2.75,5.98l.39,1.01,18.67-7.13-.38-1.01Z"/>
    <path class="cls-4" d="M188.92,205.05c-2.61,1-5.3.4-7.9-2.44l3.93-12.86,2.76-9.05c1.08,1.74,2.12,3.91,3.15,6.61,4.09,10.71,2.55,16.02-1.94,17.73M178.83,199.78c-1.1-1.78-2.16-4-3.17-6.66-4.09-10.71-2.55-16.02,1.93-17.73,2.65-1.01,5.35-.42,7.97,2.46l-6.73,21.92ZM201.01,183.44c-2.27-5.95-6.15-9.51-10.8-10.98l1.53-5.04-2.75-.89-1.63,5.34c-3.22-.41-6.71.09-10.28,1.41-.09.03-.18.06-.26.09-10.16,3.88-15.57,12.5-11.33,23.63,2.27,5.95,6.15,9.51,10.85,10.96l-1.6,5.28,2.75.89,1.7-5.58c3.26.43,6.84-.09,10.5-1.49,10.16-3.88,15.57-12.5,11.33-23.63"/>
    <path class="cls-4" d="M225.85,186.54l-3.85-10.07,1.98-16.23c.22-2.18.64-2.71,2.45-4.03l-.38-1.01-9.15,3.5.38,1.01c1.83-.7,3.58-.79,4.07.49.4,1.05.26,2.21.14,3.25l-1.53,12.33-9.33-8.24c-1.03-.92-2.19-1.89-2.5-2.71-.32-.83.19-1.7,2.02-2.4l-.39-1.01-16.11,6.15.39,1.01c1.91-.36,3.37.03,4.56,1.09l14.26,12.49,3.11,8.15c1.35,3.52.41,4.77-2.75,5.98l.38,1.01,18.68-7.13-.38-1.01c-3.16,1.21-4.69.9-6.04-2.62"/>
    <path class="cls-4" d="M238.25,173.94v-11.01s7.28,8.23,7.28,8.23l-7.28,2.78ZM262.11,174.89l-22.73-24.78-3.21,1.22-.08,31.24c-.01,3.94-.51,4.97-2.32,5.87l.38,1.01,9.43-3.6-.38-1.01c-2.79,1.07-3.9.49-4.36-.69-.33-.87-.36-1.65-.38-2.79l-.15-5.34,8.65-3.3,4.23,4.63c.47.55,1.06,1.27,1.34,2,.42,1.1-.18,2.01-1.23,2.41l-2.06.79.39,1.01,16.48-6.29-.38-1.01c-1.56.44-2.02.35-3.61-1.35"/>
  </g>
</svg>